<?xml version="1.0" encoding="UTF-8"?>
<!DOCTYPE svg PUBLIC "-//W3C//DTD SVG 1.1//EN" "http://www.w3.org/Graphics/SVG/1.1/DTD/svg11.dtd">
<!-- Creator: CorelDRAW 2017 -->
<svg xmlns="http://www.w3.org/2000/svg" xml:space="preserve" width="23.35cm" height="19.8cm" version="1.1" style="shape-rendering:geometricPrecision; text-rendering:geometricPrecision; image-rendering:optimizeQuality; fill-rule:evenodd; clip-rule:evenodd"
viewBox="0 0 23350 19800"
 xmlns:xlink="http://www.w3.org/1999/xlink">
 <defs>
  <style type="text/css">
   <![CDATA[
    .fil2 {fill:#006633}
    .fil1 {fill:#2B2B2B}
    .fil6 {fill:#606060}
    .fil5 {fill:#7B7B7B}
    .fil3 {fill:#959595}
    .fil4 {fill:#AFAFAF}
    .fil0 {fill:white}
    .fil7 {fill:#373435;fill-rule:nonzero}
   ]]>
  </style>
 </defs>
 <g id="Layer_x0020_1">
  <metadata id="CorelCorpID_0Corel-Layer"/>
  <path class="fil0" d="M7241 13133c301,186 1466,183 1824,47l21 -517 -130 -136c-396,-19 -1420,-118 -1711,93l-87 -23c-118,-6 -87,-33 -87,82l14 60 -93 148 76 153 171 93zm-97 -1332c437,126 1398,56 1907,70 97,-274 118,-398 -4,-666 -305,-120 -1505,-122 -1792,35l-179 115c-118,0 -78,-25 -68,109l-4 85 60 126 0 43 82 82 -2 0zm-876 -1387l76 76 66 -10c569,132 1169,76 1752,78 717,2 1064,128 876,-728l-2591 10c-130,-10 -107,-47 -107,66l-126 171 -23 221 0 43 76 76 0 -4zm876 -1313c0,105 -23,74 91,68l1822 33c101,-289 132,-404 -10,-682 -293,-105 -1439,-109 -1728,12l-105 -12 -72 78 -68 68c-113,0 -80,-25 -68,101l-4 93 60 126 0 43 82 72zm101 -1336c291,157 1488,159 1794,33 118,-282 109,-392 -52,-647l-1651 -2c-157,-10 -136,-58 -136,64l-39 0c-122,0 -89,-31 -95,91l12 39 -85 161 82 144 169 118zm-1429 -5923l91 -19 128 87 91 -8 72 78 58 0 87 72 219 132 72 91 64 64 91 72 132 219 78 72 0 72 78 72 0 54c-6,113 -37,91 68,91l72 72c0,103 -23,74 87,68l107 8 144 4 225 -78c122,-6 91,27 91,-95l214 -419 78 -72 76 -91 196 -196 91 -76 72 -78 58 0c113,6 87,35 87,-72l194 -72 126 -60 175 -6 713 21 144 -14 101 64 219 64c0,111 -27,82 87,76l58 0 72 87 355 355 91 72 60 146 72 87 -12 72 89 132 8 109 56 144 0 656 -56 144 -14 85 -60 126 -155 315c-105,0 -72,-23 -72,91l-78 72 -68 68 -72 78 -72 72c-115,0 -91,-31 -91,76l-128 64 -87 72 -239 87 -144 56 -219 19 -128 60 -264 223 -82 165 8 8817 60 128 0 54 87 72 64 64 72 82 144 -4 237 76 200 -4 128 87 91 -8c0,103 -23,74 87,68l58 0 72 78 72 0 72 82 427 427 87 72 0 54c-6,115 -37,91 72,91l0 54c-6,113 -37,91 68,91l4 128 64 109 4 254 0 328 -4 247 -60 126 -14 93 -68 111 0 39c-111,0 -72,-23 -72,109l0 35 -78 91 -140 200c-124,0 -91,-31 -91,95l-200 136c-122,6 -97,-29 -97,82l-266 132 -157 91 -169 -33 -693 19 -91 19 -128 -91 -130 0 -87 -76 -437 -272 -72 -82 -82 -72 -132 -219 -72 -87 0 -58 -72 -91 0 -54 -87 -72 -64 -64 -72 -82 -509 64 -78 82 -214 419 -82 91 -282 287 -72 78 -87 68 -58 0c-122,6 -97,-29 -97,82l-19 0 -126 64 -375 87 -618 -12 -163 12 -109 -91 -91 8c0,-103 23,-74 -87,-68l-58 0 -72 -78 -146 -64 -72 -91 -208 -208 -82 -72 -78 -72 -128 -309 -82 -146 -14 -91 -56 -144 0 -656 60 -128 14 -91 60 -128 0 -54c107,0 78,25 72,-87l0 -58c109,0 78,25 72,-91l68 -128 82 -72c101,0 74,23 66,-82 103,12 80,37 80,-64l72 -72 72 -78 146 -60 87 -82 33 0 126 -64 99 -14 128 -60 219 -19 219 -56 239 -82c118,0 87,29 87,-87l0 -39c111,0 74,23 68,-109l4 -9001 -68 -87 0 -58 -78 -82 -163 -49 -437 -87 -219 8 -128 -87 -144 4 -72 -72 -72 0 -72 -72 -146 -64 -72 -91 -282 -282 -82 -72 -68 -87 0 -58 -72 -91 0 -54 -72 -91 -8 -109 -64 -109 -4 -254 0 -328 -8 -291 87 -128 -8 -72c107,0 78,25 72,-87l0 -58c109,0 78,25 72,-91l0 -54c109,0 78,25 78,-91l140 -200c105,0 78,25 78,-82l204 -136c115,0 87,29 87,-82l344 -140 128 -60 146 -19 219 -56 181 -12 346 91 6 4z"/>
  <path class="fil1" d="M3548 3949l64 109 8 109c-6,115 -37,91 72,91l0 54c-6,115 -37,91 72,91l0 58c-6,111 -35,87 68,87l82 72 282 282 72 91 146 64 72 72 72 0 72 72 144 -4 128 87 219 -8 437 87 163 49c0,107 -27,82 78,82l0 58c-6,111 -35,87 68,87l-4 9001 -68 109 0 39c-118,0 -87,-29 -87,87l-239 82 -219 56 -219 19 -128 60 -99 14c-148,-10 -126,-56 -126,64l-33 0c-115,0 -87,-29 -87,82l-146 60 -72 78 -72 72 -80 64 -66 82 -82 72 -68 128 -72 91 0 58 -72 87 0 54 -60 128 -14 91 -60 128 0 656 56 144 14 91 82 146 128 309 78 72 82 72 208 208 72 91 146 64 72 78 58 0 87 68 91 -8 109 91 163 -12c268,128 346,120 618,12l375 -87 126 -64 19 0c122,-6 97,29 97,-82l58 0c111,6 87,35 87,-68l72 -78 282 -287c113,0 82,27 82,-91l214 -419c105,0 78,25 78,-82l509 -64 72 82 64 64 87 72 0 54c-6,115 -37,91 72,91l0 58c-6,113 -35,87 72,87l132 219 82 72 72 82 437 272c0,111 -27,82 87,76l130 0 128 91 91 -19c256,122 454,148 693,-19l169 33c245,-4 105,19 157,-91l266 -132c122,-6 97,29 97,-82l200 -136c122,-6 91,27 91,-95l140 -200c109,0 78,25 78,-91l0 -35c111,0 72,23 72,-109l0 -39c113,0 74,23 68,-111l14 -93 60 -126 4 -247 0 -328 -4 -254 -64 -109 -4 -128 -68 -91 0 -54 -72 -91 0 -54 -87 -72 -427 -427 -72 -82 -72 0 -72 -78 -58 0 -87 -68 -91 8 -128 -87 -200 4 -237 -76 -144 4 -72 -82 -64 -64 -87 -72 0 -54 -60 -128 -8 -8817 82 -165 264 -223 128 -60 219 -19 144 -56 239 -87c113,6 87,35 87,-72l128 -64 91 -76 72 -72 72 -78 68 -68 78 -72c105,0 72,23 72,-91l155 -315 60 -126 14 -85 56 -144 0 -656 -56 -144 -8 -109 -89 -132 12 -72c6,-113 35,-87 -72,-87l-60 -146 -91 -72 -355 -355 -72 -87 -58 0 -87 -76 -219 -64c0,-109 23,-74 -101,-64l-144 14c-245,-155 -458,-144 -713,-21l-175 6 -126 60 -194 72 -87 72 -58 0 -72 78c-115,0 -91,-31 -91,76l-196 196c-109,0 -76,-25 -76,91l-78 72 -214 419c-124,0 -91,-31 -91,95l-225 78 -144 -4 -107 -8 -87 -68 -72 -72 -68 -91 0 -54 -78 -72 0 -72 -78 -72 -132 -219 -91 -72 -64 -64 -72 -91 -219 -132c0,-107 25,-78 -87,-72l-58 0 -72 -78 -91 8 -128 -87 -91 19 -346 -91 -181 12 -219 56 -146 19 -128 60 -344 140 -87 82 -204 136 -78 82 -140 200 -78 91 0 54 -72 91 0 58 -72 87 8 72 -87 128 8 291 0 328 4 254 -6 -4zm6595 -3026l109 -19 109 91 148 -4 87 76 509 272 72 91 355 355 82 72 82 72 64 146 78 72 0 54c-6,115 -37,91 72,91l0 54c-6,115 -37,91 72,91l0 54 60 128 14 85 80 155 -16 159 76 309 0 400 -95 346 19 85 -60 126 -4 115 -91 128 8 72 -72 91 0 54 -72 91 0 54 -68 91 -78 72 -68 128c-105,0 -72,-23 -72,91l-82 72 -64 64 -72 82 -72 72 -72 72c-111,0 -87,-31 -87,72l-130 68c-115,6 -91,-27 -91,82l-25 0c-150,-6 -126,-49 -126,72l-19 0c-150,-6 -126,-49 -126,72l-19 0 -126 64 -93 14 -126 60 -43 7914 124 99 134 0 151 80 68 -8 101 68 58 0 87 72 58 0 87 76 146 60 72 87 501 501 91 72 68 130c-6,113 -35,87 72,87l150 334c-10,124 -45,101 64,101l8 109c-10,132 -49,109 64,109l-6 144 87 268 -8 734 -64 200 -4 109 -91 128 19 91 -91 128 8 76 -72 87 -60 146c-118,0 -82,-27 -78,101l0 25c-109,0 -76,-25 -76,91l-78 72 -140 200c-124,0 -91,-31 -91,95l-200 136 -72 78 -72 82 -146 60 -87 72 -58 0 -87 72 -58 0 -87 72 -95 14 -144 56 -1272 87 -146 -80 -144 4c0,-109 23,-74 -101,-64l-115 -8c0,-103 23,-74 -87,-68l-58 0 -72 -78 -72 0 -72 -72 -72 0 -72 -82 -291 -200 -72 -91 -64 -64 -72 -82 -146 19c-105,-12 -82,-37 -82,64l-72 72 -72 72 -72 72c-115,0 -91,-31 -91,76l-128 60 -87 76 -58 0c-122,6 -97,-29 -97,82l-165 78 -126 60 -93 14 -126 60 -85 14 -144 56 -402 25 -264 -6 -340 -19 -150 -56 -134 0 -128 -87 -72 8c0,-113 25,-80 -101,-68l-334 -146c0,-111 27,-82 -87,-76l-130 -68 -72 -91 -355 -355 -91 -72 -132 -219 -72 -91 0 -54 -72 -91 0 -54 -78 -72 0 -72 -64 -109 -8 -109 -80 -146 29 -109 -95 -346 0 -400 76 -309 -8 -72c105,-52 82,85 87,-157l-23 -150 91 -128 -8 -72c109,0 78,25 78,-91l0 -39c113,0 72,23 72,-111l0 -33 82 -87 132 -219 78 -72c101,0 74,23 66,-82 109,12 78,35 85,-78l49 -54 91 -76 72 -72 72 -78 122 -64c122,-6 97,29 97,-82l348 -146c113,6 87,35 87,-72l344 -72 101 -60c107,-1307 64,-2624 64,-3936 0,-1309 52,-2624 -72,-3927l-122 -91 -122 23 -138 4 -109 -91 -91 8c0,-109 23,-74 -101,-64l-87 -19 -101 -72 -146 -56 -72 -82 -645 -581 -91 -72 -68 -128c6,-115 37,-91 -72,-91l-128 -309 -91 -128 -4 -109 -60 -128 -8 -109 -68 -181 14 -882 54 -140 -4 -138 87 -128 -19 -91 95 -128 -8 -58 82 -87 60 -146c107,0 78,25 72,-87l0 -58 78 -72c105,0 72,23 72,-91l140 -200c103,0 78,27 78,-78l204 -136 87 -76 72 -82 146 -56 101 -78 19 0c134,-6 111,35 111,-76l33 0 126 -64 99 -14 128 -60 85 -14 126 -60 408 -25 410 23 297 -2 128 60 109 4 128 87 91 -8c0,103 -23,74 87,68l58 0 72 78 72 0 72 72 72 0 72 82 291 200 72 91 64 64 82 72 136 -8c109,10 85,35 72,-74 109,12 85,37 72,-72 105,12 82,37 82,-64l72 -72 72 -78 122 -64c122,-6 97,29 97,-82l58 0c113,6 87,35 87,-76l190 -72c126,10 101,45 101,-68l115 -4c126,10 101,45 101,-68l606 -76 388 0 315 4 128 87 -21 6z"/>
  <path class="fil2" d="M6301 10434l-66 10c0,-105 27,-80 -76,-76 4,-103 29,-76 -76,-76l0 -43 23 -221 126 -171 107 -66 2591 -10c0,274 41,330 -82,575 -338,167 -2057,82 -2546,76l0 2z"/>
  <path class="fil2" d="M8948 9158l-1822 -33 -91 -68 -82 -72 0 -43 -60 -126 4 -93 68 -101 68 -68 72 -78 105 12c421,-4 1311,-70 1666,56 113,243 72,342 72,616l0 -2z"/>
  <path class="fil2" d="M8942 11828c-509,-14 -1470,56 -1907,-70 0,-109 27,-82 -82,-82l0 -43 -60 -126 4 -85 68 -109 179 -115c406,-39 1377,-97 1728,35l68 598 2 -2z"/>
  <path class="fil2" d="M7136 7719l-169 -118 2 -305 -12 -39c126,0 95,33 95,-91l39 0 136 -64 1651 2c47,276 89,320 -14,581 -336,136 -1330,72 -1728,35l0 -2z"/>
  <path class="fil2" d="M7132 13090l-171 -93 17 -301 -14 -60c115,0 87,29 87,-82l87 23 1752 8 -47 484c-295,130 -1357,76 -1711,23l2 -2z"/>
  <path class="fil3" d="M4934 14085l-8 -7863c124,1303 72,2618 72,3927 0,1311 43,2629 -64,3936z"/>
  <path class="fil2" d="M8888 12585l-1752 -8c291,-210 1315,-109 1711,-93l130 136 -89 -37 0 2z"/>
  <path class="fil2" d="M6301 10434c489,6 2208,91 2546,-76 124,-245 82,-301 82,-575 186,858 -159,730 -876,728 -581,-2 -1183,54 -1752,-78l0 2z"/>
  <path class="fil2" d="M7132 13090c355,54 1416,109 1711,-23l47 -484 89 37 -21 517c-359,136 -1524,138 -1825,-47l-2 0z"/>
  <path class="fil2" d="M8942 11828l-68 -598c-348,-132 -1321,-74 -1728,-35 287,-157 1486,-153 1792,-35 122,270 101,392 4,666l0 2z"/>
  <path class="fil2" d="M7136 7719c398,39 1392,101 1728,-35 105,-262 64,-305 14,-581 159,256 169,365 52,647 -305,126 -1505,126 -1794,-33l0 2z"/>
  <path class="fil2" d="M8948 9158c0,-274 41,-373 -72,-616 -353,-126 -1245,-60 -1666,-56 291,-120 1435,-118 1728,-12 142,280 111,396 10,682l0 2z"/>
  <path class="fil3" d="M9288 18507l693 -19c-237,167 -437,140 -693,19z"/>
  <path class="fil4" d="M9129 1786c258,-124 468,-134 713,21l-713 -21z"/>
  <path class="fil3" d="M5142 18507l618 12c-272,107 -350,115 -618,-12z"/>
  <path class="fil4" d="M5144 823c219,-80 208,-118 410,23l-410 -23z"/>
  <polygon class="fil2" points="6967,7602 6884,7457 6969,7297 "/>
  <polygon class="fil2" points="6958,12997 6884,12844 6977,12696 "/>
  <path class="fil4" d="M4029 1134c0,-118 -25,-76 111,-76 0,113 23,72 -111,76z"/>
  <path class="fil3" d="M7670 3025c0,-126 -33,-95 91,-95 0,122 31,91 -91,95z"/>
  <path class="fil3" d="M11525 18734c0,-126 -33,-95 91,-95 0,122 31,91 -91,95z"/>
  <path class="fil3" d="M10871 18081c0,-126 -33,-95 91,-95 0,122 31,91 -91,95z"/>
  <path class="fil2" d="M6956 7257c6,-122 -27,-91 95,-91 0,124 31,91 -95,91z"/>
  <path class="fil4" d="M3035 15545c0,-134 -39,-111 72,-111 0,134 39,111 -72,111z"/>
  <path class="fil3" d="M11180 17658c0,-132 -39,-109 72,-109 0,132 39,109 -72,109z"/>
  <path class="fil4" d="M5711 14875c0,-118 -29,-87 87,-87 0,118 29,87 -87,87z"/>
  <path class="fil4" d="M3955 14516c0,-111 -25,-76 97,-82 0,111 25,76 -97,82z"/>
  <path class="fil4" d="M6282 18371c0,-111 -25,-76 97,-82 0,111 25,76 -97,82z"/>
  <path class="fil4" d="M7956 1279c0,-111 -25,-76 97,-82 0,111 25,76 -97,82z"/>
  <path class="fil4" d="M10574 18297c0,-111 -25,-76 97,-82 0,111 25,76 -97,82z"/>
  <path class="fil5" d="M6719 19171c0,-111 -25,-76 97,-82 0,111 25,76 -97,82z"/>
  <path class="fil2" d="M6962 12636c0,-118 -29,-89 87,-82 0,111 27,82 -87,82z"/>
  <path class="fil5" d="M3464 14939c-10,-109 -33,-78 85,-78 -6,113 25,91 -85,78z"/>
  <path class="fil3" d="M10871 5862c0,-109 -25,-76 91,-82 0,109 25,76 -91,82z"/>
  <path class="fil3" d="M7461 1703c-12,-111 -37,-87 72,-74 12,109 37,85 -72,74z"/>
  <path class="fil3" d="M10890 4621c0,-115 -31,-91 72,-91 0,115 31,91 -72,91z"/>
  <path class="fil3" d="M11543 5274c0,-115 -31,-91 72,-91 0,115 31,91 -72,91z"/>
  <path class="fil3" d="M3107 1930c0,-115 -31,-91 72,-91 0,115 31,91 -72,91z"/>
  <path class="fil3" d="M7534 1629c-12,-109 -37,-85 72,-72 12,109 37,85 -72,72z"/>
  <path class="fil4" d="M11092 5711c0,-103 -23,-72 87,-72 0,103 23,72 -87,72z"/>
  <path class="fil6" d="M10150 18522l157 -91c-52,109 89,87 -157,91z"/>
  <path class="fil6" d="M2812 16184l87 -157c-4,241 19,105 -87,157z"/>
  <path class="fil2" d="M7092 7167c0,-122 -23,-74 136,-64l-136 64z"/>
  <path class="fil5" d="M10574 6006c0,-124 -25,-78 126,-72l-126 72z"/>
  <path class="fil5" d="M10719 5934c0,-124 -25,-78 126,-72l-126 72z"/>
  <polygon class="fil4" points="4682,6152 4804,6130 4804,6214 "/>
  <polygon class="fil6" points="4804,6214 4804,6130 4926,6220 "/>
  <path class="fil4" d="M4173 1056c0,-120 -23,-74 126,-64l-126 64z"/>
  <path class="fil5" d="M4682 15166c0,-120 -23,-74 126,-64l-126 64z"/>
  <path class="fil2" d="M6899 11420c-10,-132 -47,-109 68,-109l-68 109z"/>
  <path class="fil4" d="M4052 5921l101 72c-128,10 -101,45 -101,-72z"/>
  <path class="fil4" d="M3907 1211c0,-118 -27,-82 101,-78l-101 78z"/>
  <path class="fil5" d="M11912 18250c-6,-128 -39,-101 78,-101l-78 101z"/>
  <path class="fil4" d="M11253 17508l68 -111c6,134 45,111 -68,111z"/>
  <path class="fil3" d="M5798 14749l68 -109c6,132 43,109 -68,109z"/>
  <path class="fil2" d="M6231 9859c0,-113 -23,-76 107,-66l-107 66z"/>
  <path class="fil3" d="M12207 15930l64 109c-111,0 -74,23 -64,-109z"/>
  <path class="fil3" d="M2897 17675l64 109c-111,0 -74,23 -64,-109z"/>
  <path class="fil5" d="M8606 976l101 -68c0,113 25,80 -101,68z"/>
  <path class="fil4" d="M10642 14230c126,-10 101,-45 101,68l-101 -68z"/>
  <path class="fil5" d="M8387 1048l101 -68c0,113 25,80 -101,68z"/>
  <path class="fil5" d="M4388 19248c126,-10 101,-45 101,68l-101 -68z"/>
  <path class="fil2" d="M6899 8723c-10,-126 -45,-101 68,-101l-68 101z"/>
  <path class="fil5" d="M12135 15718l64 101c-109,0 -74,23 -64,-101z"/>
  <path class="fil5" d="M9987 1794c124,-10 101,-45 101,64l-101 -64z"/>
  <path class="fil5" d="M8750 19320c124,-10 101,-45 101,64l-101 -64z"/>
  <path class="fil5" d="M4241 6012c124,-10 101,-45 101,64l-101 -64z"/>
  <path class="fil3" d="M6880 17858l82 -91c0,118 31,91 -82,91z"/>
  <path class="fil5" d="M4561 15248c0,-111 -27,-82 87,-82l-87 82z"/>
  <path class="fil4" d="M3107 15399c0,-115 -29,-87 82,-87l-82 87z"/>
  <path class="fil5" d="M8853 18357l87 76c-113,6 -87,35 -87,-76z"/>
  <path class="fil5" d="M3965 19025c113,-6 87,-35 87,76l-87 -76z"/>
  <path class="fil4" d="M6874 19089l87 -76c0,111 27,82 -87,76z"/>
  <path class="fil4" d="M10510 988c113,-6 87,-35 87,76l-87 -76z"/>
  <path class="fil5" d="M8111 1198l87 -76c0,111 27,82 -87,76z"/>
  <path class="fil4" d="M2817 2382c0,-115 -29,-87 82,-87l-82 87z"/>
  <path class="fil4" d="M4256 2075l87 -82c0,111 27,82 -87,82z"/>
  <path class="fil4" d="M10306 1920l87 76c-113,6 -87,35 -87,-76z"/>
  <path class="fil4" d="M10948 14370c113,-6 87,-35 87,76l-87 -76z"/>
  <path class="fil3" d="M11830 4839l72 -91c6,115 37,91 -72,91z"/>
  <path class="fil3" d="M2957 4911c109,0 78,-25 72,91l-72 -91z"/>
  <path class="fil3" d="M3903 15893l72 -91c6,115 37,91 -72,91z"/>
  <path class="fil3" d="M3685 2730l72 -91c6,115 37,91 -72,91z"/>
  <path class="fil3" d="M11912 2347l72 91c-109,0 -78,25 -72,-91z"/>
  <path class="fil3" d="M11185 15875l72 91c-109,0 -78,25 -72,-91z"/>
  <path class="fil3" d="M3111 18130l72 91c-109,0 -78,25 -72,-91z"/>
  <path class="fil3" d="M7985 17475l72 91c-109,0 -78,25 -72,-91z"/>
  <path class="fil3" d="M3621 4165l72 91c-109,0 -78,25 -72,-91z"/>
  <path class="fil3" d="M3693 4311l72 91c-109,0 -78,25 -72,-91z"/>
  <path class="fil3" d="M11838 2202l72 91c-109,0 -78,25 -72,-91z"/>
  <path class="fil3" d="M11902 4693l72 -91c6,115 37,91 -72,91z"/>
  <path class="fil3" d="M2957 15675l78 -91c0,115 31,91 -78,91z"/>
  <path class="fil3" d="M3039 17984l72 91c-109,0 -78,25 -72,-91z"/>
  <path class="fil3" d="M3757 2584l78 -91c0,115 31,91 -78,91z"/>
  <path class="fil3" d="M11102 17784l78 -91c0,115 31,91 -78,91z"/>
  <path class="fil3" d="M10506 4990c0,-109 -25,-76 91,-76l-91 76z"/>
  <path class="fil3" d="M8053 2439c0,-115 -31,-91 76,-91l-76 91z"/>
  <path class="fil3" d="M8325 2153c0,-109 -25,-76 91,-76l-91 76z"/>
  <path class="fil3" d="M11834 18365c0,-115 -31,-91 76,-91l-76 91z"/>
  <path class="fil3" d="M7088 18953c0,-109 -25,-76 91,-76l-91 76z"/>
  <path class="fil3" d="M3598 14807c0,-109 -25,-76 91,-76l-91 76z"/>
  <path class="fil4" d="M3612 2874l72 -87c6,113 35,87 -72,87z"/>
  <path class="fil5" d="M2957 2149l72 -87c6,113 35,87 -72,87z"/>
  <path class="fil4" d="M10657 19307l87 -72c0,107 25,78 -87,72z"/>
  <path class="fil5" d="M8057 17625l72 87c-107,0 -78,25 -72,-87z"/>
  <path class="fil4" d="M8548 1998l87 -72c0,107 25,78 -87,72z"/>
  <path class="fil5" d="M6146 1934c113,-6 87,-35 87,72l-87 -72z"/>
  <path class="fil5" d="M11912 15298l72 87c-107,0 -78,25 -72,-87z"/>
  <path class="fil5" d="M4402 14289l87 -72c0,107 25,78 -87,72z"/>
  <path class="fil4" d="M10801 14298c113,-6 87,-35 87,72l-87 -72z"/>
  <path class="fil4" d="M10801 19235l87 -72c0,107 25,78 -87,72z"/>
  <path class="fil4" d="M3829 16040l72 -87c6,113 35,87 -72,87z"/>
  <path class="fil4" d="M12048 18002l72 -87c6,113 35,87 -72,87z"/>
  <path class="fil5" d="M11030 2656c107,0 78,-25 72,87l-72 -87z"/>
  <path class="fil4" d="M10948 19161l87 -72c0,107 25,78 -87,72z"/>
  <path class="fil5" d="M10292 5126l87 -72c0,107 25,78 -87,72z"/>
  <path class="fil5" d="M3602 1425c0,-107 -25,-76 87,-76l-87 76z"/>
  <path class="fil2" d="M6952 11675c109,0 82,-27 82,82l-82 -82z"/>
  <path class="fil3" d="M6967 2856l68 91c-105,0 -74,23 -68,-91z"/>
  <path class="fil3" d="M11762 4983l68 -91c6,113 37,91 -68,91z"/>
  <path class="fil3" d="M11257 16021l68 91c-105,0 -74,23 -68,-91z"/>
  <path class="fil2" d="M7035 9057l91 68c-113,6 -91,37 -91,-68z"/>
  <path class="fil5" d="M7624 18576l72 82c-109,0 -85,27 -72,-82z"/>
  <path class="fil4" d="M7107 3021l87 68c-111,6 -87,35 -87,-68z"/>
  <path class="fil5" d="M8548 19243c111,-6 87,-35 87,68l-87 -68z"/>
  <path class="fil5" d="M6437 18289l87 -68c0,103 23,74 -87,68z"/>
  <path class="fil5" d="M3767 4460l68 87c-103,0 -74,23 -68,-87z"/>
  <path class="fil4" d="M10306 15093l87 68c-111,6 -87,35 -87,-68z"/>
  <path class="fil4" d="M4693 18371c111,-6 87,-35 87,68l-87 -68z"/>
  <path class="fil5" d="M5802 5550l68 87c-103,0 -74,23 -68,-87z"/>
  <path class="fil5" d="M6307 984l87 68c-111,6 -87,35 -87,-68z"/>
  <path class="fil3" d="M5726 5412l78 82c-105,0 -78,25 -78,-82z"/>
  <path class="fil3" d="M3975 2293l78 -82c0,107 27,82 -78,82z"/>
  <path class="fil4" d="M7175 17349l78 -82c0,107 27,82 -78,82z"/>
  <path class="fil2" d="M6158 10370c103,-4 76,-29 76,76l-76 -76z"/>
  <path class="fil2" d="M6082 10294c105,0 80,-27 76,76l-76 -76z"/>
  <path class="fil4" d="M3320 1640l78 -78c0,103 27,78 -78,78z"/>
  <path class="fil3" d="M4126 15603l66 -82c10,105 35,82 -66,82z"/>
  <path class="fil3" d="M7608 1557l82 -64c0,101 23,76 -82,64z"/>
  <path class="fil3" d="M3398 15021l66 -82c10,105 35,82 -66,82z"/>
  <path class="fil5" d="M7397 18658c0,-101 -23,-76 82,-64l-82 64z"/>
  <path class="fil4" d="M4190 15520l80 -64c0,101 23,76 -80,64z"/>
  <polygon class="fil3" points="10253,904 10362,992 "/>
  <polygon class="fil3" points="6088,908 6216,992 "/>
  <polygon class="fil3" points="4398,980 4526,920 "/>
  <polygon class="fil5" points="6453,1052 6525,1130 "/>
  <polygon class="fil3" points="6598,1130 6670,1203 "/>
  <polygon class="fil3" points="6744,1203 6816,1285 "/>
  <polygon class="fil3" points="3689,1347 3761,1266 "/>
  <polygon class="fil3" points="11106,1339 11180,1429 "/>
  <polygon class="fil3" points="7762,1421 7835,1343 "/>
  <polygon class="fil3" points="7688,1493 7762,1421 "/>
  <polygon class="fil2" points="6952,8985 7035,9057 "/>
  <polygon class="fil2" points="6894,8814 6952,8940 "/>
  <polygon class="fil2" points="7035,8552 7107,8476 "/>
  <polygon class="fil2" points="6894,11506 6952,11632 "/>
  <polygon class="fil3" points="4433,6066 4544,6157 "/>
  <polygon class="fil5" points="10209,6144 10335,6084 "/>
  <polygon class="fil5" points="10428,6070 10554,6006 "/>
  <polygon class="fil5" points="3835,5783 3907,5866 "/>
  <polygon class="fil3" points="9216,5730 9298,5565 "/>
  <polygon class="fil3" points="11180,5639 11253,5567 "/>
  <polygon class="fil5" points="11253,5567 11325,5493 "/>
  <polygon class="fil5" points="11325,5493 11399,5412 "/>
  <polygon class="fil3" points="5126,5276 5563,5361 "/>
  <polygon class="fil2" points="10166,14057 10290,14158 "/>
  <polygon class="fil3" points="4835,14143 4934,14085 "/>
  <polygon class="fil4" points="10424,14158 10574,14238 "/>
  <polygon class="fil3" points="9562,5344 9688,5284 "/>
  <polygon class="fil3" points="11461,5348 11543,5274 "/>
  <polygon class="fil3" points="4779,5198 4907,5284 "/>
  <polygon class="fil3" points="9906,5266 10053,5212 "/>
  <polygon class="fil3" points="3097,5130 3190,5202 "/>
  <polygon class="fil3" points="11180,14508 11253,14593 "/>
  <polygon class="fil3" points="9226,14547 9284,14675 "/>
  <polygon class="fil4" points="3761,14656 3835,14580 "/>
  <polygon class="fil3" points="4561,5130 4635,5202 "/>
  <polygon class="fil3" points="3689,14731 3761,14656 "/>
  <polygon class="fil5" points="9284,14731 9370,14803 "/>
  <polygon class="fil3" points="4416,5058 4489,5130 "/>
  <polygon class="fil3" points="11683,5058 11762,4983 "/>
  <polygon class="fil3" points="9434,14867 9506,14947 "/>
  <polygon class="fil4" points="4198,4903 4270,4994 "/>
  <polygon class="fil3" points="9653,14943 9890,15021 "/>
  <polygon class="fil3" points="5253,15011 5470,14957 "/>
  <polygon class="fil3" points="10088,15017 10216,15102 "/>
  <polygon class="fil3" points="4907,15089 5035,15030 "/>
  <polygon class="fil3" points="3320,15093 3398,15021 "/>
  <polygon class="fil3" points="11754,15093 11844,15166 "/>
  <polygon class="fil4" points="10597,4911 10671,4839 "/>
  <polygon class="fil4" points="10671,4839 10743,4761 "/>
  <polygon class="fil4" points="10453,15162 10525,15240 "/>
  <polygon class="fil3" points="10811,4693 10890,4621 "/>
  <polygon class="fil3" points="10597,15240 10671,15320 "/>
  <polygon class="fil3" points="2829,4602 2738,4474 "/>
  <polygon class="fil5" points="4344,15384 4416,15308 "/>
  <polygon class="fil4" points="3835,4548 3915,4621 "/>
  <polygon class="fil3" points="4270,15456 4344,15384 "/>
  <polygon class="fil3" points="11966,4530 12057,4402 "/>
  <polygon class="fil3" points="4043,15675 4126,15603 "/>
  <polygon class="fil3" points="2674,4239 2734,4365 "/>
  <polygon class="fil5" points="12061,4287 12121,4159 "/>
  <polygon class="fil3" points="11098,15747 11185,15821 "/>
  <polygon class="fil4" points="11117,4212 11174,4087 "/>
  <polygon class="fil3" points="2876,15875 2965,15747 "/>
  <polygon class="fil3" points="2666,4130 2598,3949 "/>
  <polygon class="fil3" points="3548,3949 3612,4058 "/>
  <polygon class="fil3" points="12102,4074 12199,3730 "/>
  <polygon class="fil3" points="11189,4002 11244,3858 "/>
  <polygon class="fil3" points="3771,16221 3829,16093 "/>
  <polygon class="fil3" points="3542,3693 3542,3365 "/>
  <polygon class="fil3" points="11331,16238 11393,16349 "/>
  <polygon class="fil3" points="3697,16440 3757,16312 "/>
  <polygon class="fil5" points="12351,16450 12263,16184 "/>
  <polygon class="fil3" points="2744,16565 2821,16256 "/>
  <polygon class="fil3" points="11399,16930 11399,16603 "/>
  <polygon class="fil3" points="3697,17093 3753,17240 "/>
  <polygon class="fil4" points="11335,17304 11393,17178 "/>
  <polygon class="fil4" points="7762,17202 7835,17285 "/>
  <polygon class="fil3" points="12279,17384 12343,17184 "/>
  <polygon class="fil3" points="12199,3330 12121,3021 "/>
  <polygon class="fil3" points="2839,17312 2744,16965 "/>
  <polygon class="fil3" points="7898,17349 7985,17421 "/>
  <polygon class="fil4" points="7301,3097 7447,3103 "/>
  <polygon class="fil3" points="3847,17477 3767,17330 "/>
  <polygon class="fil3" points="11189,3058 11244,3202 "/>
  <polygon class="fil3" points="2889,17565 2808,17421 "/>
  <polygon class="fil3" points="12184,17621 12275,17493 "/>
  <polygon class="fil3" points="3534,3077 3621,2947 "/>
  <polygon class="fil4" points="2613,3064 2666,2924 "/>
  <polygon class="fil5" points="7035,2949 7107,3021 "/>
  <polygon class="fil4" points="9315,829 9700,829 "/>
  <polygon class="fil3" points="12112,17840 12203,17712 "/>
  <polygon class="fil3" points="11180,2949 11090,2817 "/>
  <polygon class="fil5" points="3975,17784 4052,17858 "/>
  <polygon class="fil4" points="4052,17858 4134,17930 "/>
  <polygon class="fil3" points="2961,17858 3039,17930 "/>
  <polygon class="fil3" points="12137,2860 12057,2705 "/>
  <polygon class="fil5" points="8261,17930 8344,18002 "/>
  <polygon class="fil3" points="2662,2784 2749,2656 "/>
  <polygon class="fil3" points="8344,18002 8416,18085 "/>
  <polygon class="fil3" points="6888,2730 6967,2802 "/>
  <polygon class="fil3" points="6812,2584 6888,2656 "/>
  <polygon class="fil4" points="6525,18221 6598,18143 "/>
  <polygon class="fil3" points="4344,18138 4416,18229 "/>
  <polygon class="fil3" points="2730,2567 2825,2437 "/>
  <polygon class="fil3" points="11984,2493 12044,2621 "/>
  <polygon class="fil3" points="7975,2512 8053,2439 "/>
  <polygon class="fil3" points="10879,2439 10970,2512 "/>
  <polygon class="fil3" points="6589,2293 6680,2365 "/>
  <polygon class="fil3" points="4561,18293 4635,18371 "/>
  <polygon class="fil3" points="11758,18439 11834,18365 "/>
  <polygon class="fil3" points="6453,2138 6525,2229 "/>
  <polygon class="fil4" points="6138,18435 6264,18371 "/>
  <polygon class="fil3" points="11762,2075 11838,2149 "/>
  <polygon class="fil5" points="8416,2075 8488,1998 "/>
  <polygon class="fil3" points="9069,18435 9199,18526 "/>
  <polygon class="fil2" points="6082,10251 6105,10030 "/>
  <polygon class="fil3" points="4870,18429 4979,18520 "/>
  <polygon class="fil3" points="3316,18439 3406,18512 "/>
  <polygon class="fil3" points="10453,1998 10525,2085 "/>
  <polygon class="fil3" points="7480,18594 7624,18576 "/>
  <polygon class="fil3" points="3029,2002 3107,1930 "/>
  <polygon class="fil3" points="6016,1856 6088,1934 "/>
  <polygon class="fil3" points="10016,834 10143,920 "/>
  <polygon class="fil4" points="11615,1856 11698,1930 "/>
  <polygon class="fil3" points="4689,1852 4816,1794 "/>
  <polygon class="fil3" points="7325,18730 7397,18658 "/>
  <polygon class="fil4" points="7762,18720 7835,18813 "/>
  <polygon class="fil3" points="7253,18802 7325,18730 "/>
  <polygon class="fil3" points="7179,18874 7253,18802 "/>
  <polygon class="fil5" points="11253,18949 11325,18870 "/>
  <polygon class="fil3" points="5798,1780 5925,1866 "/>
  <polygon class="fil4" points="3761,18866 3835,18957 "/>
  <polygon class="fil3" points="11180,19029 11253,18949 "/>
  <polygon class="fil4" points="8125,19013 8197,19093 "/>
  <polygon class="fil5" points="8828,1852 8954,1794 "/>
  <polygon class="fil3" points="11535,1784 11615,1856 "/>
  <polygon class="fil3" points="4963,1776 5179,1720 "/>
  <polygon class="fil3" points="8272,19093 8344,19167 "/>
  <polygon class="fil3" points="5361,1708 5707,1798 "/>
  <polygon class="fil5" points="7325,1712 7461,1703 "/>
  <polygon class="fil5" points="8416,19167 8488,19243 "/>
  <polygon class="fil5" points="7243,1640 7325,1712 "/>
  <polygon class="fil3" points="5851,844 5979,902 "/>
  <polygon class="fil5" points="6429,19307 6554,19248 "/>
  <polygon class="fil3" points="7107,1485 7179,1576 "/>
  <polygon class="fil3" points="10416,19375 10562,19320 "/>
  <polygon class="fil4" points="4610,908 4736,848 "/>
  <polygon class="fil5" points="6210,19380 6336,19320 "/>
  <polygon class="fil3" points="4561,19307 4689,19394 "/>
  <polygon class="fil3" points="8997,19380 9144,19462 "/>
  <polygon class="fil3" points="5979,19448 6125,19394 "/>
  <polygon class="fil5" points="4823,19394 4973,19448 "/>
  <polygon class="fil3" points="5313,19466 5579,19474 "/>
  <path class="fil7" d="M14229 10448l704 98c-78,484 -274,862 -592,1136 -318,274 -709,411 -1172,411 -580,0 -1046,-190 -1398,-569 -353,-379 -529,-922 -529,-1629 0,-458 76,-858 228,-1202 151,-342 382,-600 693,-771 310,-172 647,-258 1012,-258 460,0 838,116 1129,349 293,233 482,565 563,993l-696 106c-67,-285 -184,-499 -355,-644 -169,-143 -374,-216 -614,-216 -363,0 -657,130 -885,389 -226,261 -340,670 -340,1232 0,570 109,984 327,1241 220,258 505,387 855,387 284,0 520,-86 708,-259 190,-172 310,-438 360,-797zm1318 1555l0 -4248 647 0 0 600c132,-207 310,-375 531,-501 221,-127 472,-190 754,-190 314,0 572,65 772,195 201,131 342,312 424,547 338,-495 776,-742 1316,-742 423,0 749,116 975,349 228,233 342,592 342,1076l0 2912 -720 0 0 -2674c0,-286 -25,-494 -71,-621 -46,-127 -131,-228 -255,-306 -123,-78 -267,-116 -432,-116 -300,0 -548,100 -746,297 -198,199 -296,517 -296,954l0 2465 -720 0 0 -2757c0,-319 -59,-559 -176,-719 -117,-160 -310,-240 -576,-240 -202,0 -389,53 -561,160 -172,106 -296,262 -374,468 -76,205 -115,501 -115,887l0 2202 -720 0z"/>
 </g>
</svg>
