<?xml version="1.0" encoding="UTF-8"?>
<!DOCTYPE svg PUBLIC "-//W3C//DTD SVG 1.1//EN" "http://www.w3.org/Graphics/SVG/1.1/DTD/svg11.dtd">
<!-- Creator: CorelDRAW 2017 -->
<svg xmlns="http://www.w3.org/2000/svg" xml:space="preserve" width="29.7cm" height="21cm" version="1.1" style="shape-rendering:geometricPrecision; text-rendering:geometricPrecision; image-rendering:optimizeQuality; fill-rule:evenodd; clip-rule:evenodd"
viewBox="0 0 29700 21000"
 xmlns:xlink="http://www.w3.org/1999/xlink">
 <defs>
  <style type="text/css">
   <![CDATA[
    .fil2 {fill:#006633}
    .fil1 {fill:#2B2B2B}
    .fil6 {fill:#606060}
    .fil5 {fill:#7B7B7B}
    .fil3 {fill:#959595}
    .fil4 {fill:#AFAFAF}
    .fil0 {fill:white}
    .fil7 {fill:#006633;fill-rule:nonzero}
   ]]>
  </style>
 </defs>
 <g id="Layer_x0020_1">
  <metadata id="CorelCorpID_0Corel-Layer"/>
  <g id="_1346066267696">
   <g>
    <path class="fil0" d="M4120 6591c146,90 711,89 885,23l10 -251 -63 -66c-192,-9 -689,-57 -830,45l-42 -11c-57,-3 -42,-16 -42,40l7 29 -45 72 37 74 83 45zm-47 -646c212,61 678,27 925,34 47,-133 57,-193 -2,-323 -148,-58 -730,-59 -869,17l-87 56c-57,0 -38,-12 -33,53l-2 41 29 61 0 21 40 40zm-425 -673l37 37 32 -5c276,64 567,37 850,38 348,1 516,62 425,-353l-1257 5c-63,-5 -52,-23 -52,32l-61 83 -11 107 0 21 37 37zm425 -637c0,51 -11,36 44,33l884 16c49,-140 64,-196 -5,-331 -142,-51 -698,-53 -838,6l-51 -6 -35 38 -33 33c-55,0 -39,-12 -33,49l-2 45 29 61 0 21 40 35zm49 -648c141,76 722,77 870,16 57,-137 53,-190 -25,-314l-801 -1c-76,-5 -66,-28 -66,31l-19 0c-59,0 -43,-15 -46,44l6 19 -41 78 40 70 82 57zm-693 -2873l44 -9 62 42 44 -4 35 38 28 0 42 35 106 64 35 44 31 31 44 35 64 106 38 35 0 35 38 35 0 26c-3,55 -18,44 33,44l35 35c0,50 -11,36 42,33l52 4 70 2 109 -38c59,-3 44,13 44,-46l104 -203 38 -35 37 -44 95 -95 44 -37 35 -38 28 0c55,3 42,17 42,-35l94 -35 61 -29 85 -3 346 10 70 -7 49 31 106 31c0,54 -13,40 42,37l28 0 35 42 172 172 44 35 29 71 35 42 -6 35 43 64 4 53 27 70 0 318 -27 70 -7 41 -29 61 -75 153c-51,0 -35,-11 -35,44l-38 35 -33 33 -35 38 -35 35c-56,0 -44,-15 -44,37l-62 31 -42 35 -116 42 -70 27 -106 9 -62 29 -128 108 -40 80 4 4277 29 62 0 26 42 35 31 31 35 40 70 -2 115 37 97 -2 62 42 44 -4c0,50 -11,36 42,33l28 0 35 38 35 0 35 40 207 207 42 35 0 26c-3,56 -18,44 35,44l0 26c-3,55 -18,44 33,44l2 62 31 53 2 123 0 159 -2 120 -29 61 -7 45 -33 54 0 19c-54,0 -35,-11 -35,53l0 17 -38 44 -68 97c-60,0 -44,-15 -44,46l-97 66c-59,3 -47,-14 -47,40l-129 64 -76 44 -82 -16 -336 9 -44 9 -62 -44 -63 0 -42 -37 -212 -132 -35 -40 -40 -35 -64 -106 -35 -42 0 -28 -35 -44 0 -26 -42 -35 -31 -31 -35 -40 -247 31 -38 40 -104 203 -40 44 -137 139 -35 38 -42 33 -28 0c-59,3 -47,-14 -47,40l-9 0 -61 31 -182 42 -300 -6 -79 6 -53 -44 -44 4c0,-50 11,-36 -42,-33l-28 0 -35 -38 -71 -31 -35 -44 -101 -101 -40 -35 -38 -35 -62 -150 -40 -71 -7 -44 -27 -70 0 -318 29 -62 7 -44 29 -62 0 -26c52,0 38,12 35,-42l0 -28c53,0 38,12 35,-44l33 -62 40 -35c49,0 36,11 32,-40 50,6 39,18 39,-31l35 -35 35 -38 71 -29 42 -40 16 0 61 -31 48 -7 62 -29 106 -9 106 -27 116 -40c57,0 42,14 42,-42l0 -19c54,0 36,11 33,-53l2 -4366 -33 -42 0 -28 -38 -40 -79 -24 -212 -42 -106 4 -62 -42 -70 2 -35 -35 -35 0 -35 -35 -71 -31 -35 -44 -137 -137 -40 -35 -33 -42 0 -28 -35 -44 0 -26 -35 -44 -4 -53 -31 -53 -2 -123 0 -159 -4 -141 42 -62 -4 -35c52,0 38,12 35,-42l0 -28c53,0 38,12 35,-44l0 -26c53,0 38,12 38,-44l68 -97c51,0 38,12 38,-40l99 -66c56,0 42,14 42,-40l167 -68 62 -29 71 -9 106 -27 88 -6 168 44z"/>
    <path class="fil1" d="M2329 2136l31 53 4 53c-3,56 -18,44 35,44l0 26c-3,56 -18,44 35,44l0 28c-3,54 -17,42 33,42l40 35 137 137 35 44 71 31 35 35 35 0 35 35 70 -2 62 42 106 -4 212 42 79 24c0,52 -13,40 38,40l0 28c-3,54 -17,42 33,42l-2 4366 -33 53 0 19c-57,0 -42,-14 -42,42l-116 40 -106 27 -106 9 -62 29 -48 7c-72,-5 -61,-27 -61,31l-16 0c-56,0 -42,-14 -42,40l-71 29 -35 38 -35 35 -39 31 -32 40 -40 35 -33 62 -35 44 0 28 -35 42 0 26 -29 62 -7 44 -29 62 0 318 27 70 7 44 40 71 62 150 38 35 40 35 101 101 35 44 71 31 35 38 28 0 42 33 44 -4 53 44 79 -6c130,62 168,58 300,6l182 -42 61 -31 9 0c59,-3 47,14 47,-40l28 0c54,3 42,17 42,-33l35 -38 137 -139c55,0 40,13 40,-44l104 -203c51,0 38,12 38,-40l247 -31 35 40 31 31 42 35 0 26c-3,56 -18,44 35,44l0 28c-3,55 -17,42 35,42l64 106 40 35 35 40 212 132c0,54 -13,40 42,37l63 0 62 44 44 -9c124,59 220,72 336,-9l82 16c119,-2 51,9 76,-44l129 -64c59,-3 47,14 47,-40l97 -66c59,-3 44,13 44,-46l68 -97c53,0 38,12 38,-44l0 -17c54,0 35,11 35,-53l0 -19c55,0 36,11 33,-54l7 -45 29 -61 2 -120 0 -159 -2 -123 -31 -53 -2 -62 -33 -44 0 -26 -35 -44 0 -26 -42 -35 -207 -207 -35 -40 -35 0 -35 -38 -28 0 -42 -33 -44 4 -62 -42 -97 2 -115 -37 -70 2 -35 -40 -31 -31 -42 -35 0 -26 -29 -62 -4 -4277 40 -80 128 -108 62 -29 106 -9 70 -27 116 -42c55,3 42,17 42,-35l62 -31 44 -37 35 -35 35 -38 33 -33 38 -35c51,0 35,11 35,-44l75 -153 29 -61 7 -41 27 -70 0 -318 -27 -70 -4 -53 -43 -64 6 -35c3,-55 17,-42 -35,-42l-29 -71 -44 -35 -172 -172 -35 -42 -28 0 -42 -37 -106 -31c0,-53 11,-36 -49,-31l-70 7c-119,-75 -222,-70 -346,-10l-85 3 -61 29 -94 35 -42 35 -28 0 -35 38c-56,0 -44,-15 -44,37l-95 95c-53,0 -37,-12 -37,44l-38 35 -104 203c-60,0 -44,-15 -44,46l-109 38 -70 -2 -52 -4 -42 -33 -35 -35 -33 -44 0 -26 -38 -35 0 -35 -38 -35 -64 -106 -44 -35 -31 -31 -35 -44 -106 -64c0,-52 12,-38 -42,-35l-28 0 -35 -38 -44 4 -62 -42 -44 9 -168 -44 -88 6 -106 27 -71 9 -62 29 -167 68 -42 40 -99 66 -38 40 -68 97 -38 44 0 26 -35 44 0 28 -35 42 4 35 -42 62 4 141 0 159 2 123zm3199 -1468l53 -9 53 44 72 -2 42 37 247 132 35 44 172 172 40 35 40 35 31 71 38 35 0 26c-3,56 -18,44 35,44l0 26c-3,56 -18,44 35,44l0 26 29 62 7 41 39 75 -8 77 37 150 0 194 -46 168 9 41 -29 61 -2 56 -44 62 4 35 -35 44 0 26 -35 44 0 26 -33 44 -38 35 -33 62c-51,0 -35,-11 -35,44l-40 35 -31 31 -35 40 -35 35 -35 35c-54,0 -42,-15 -42,35l-63 33c-56,3 -44,-13 -44,40l-12 0c-73,-3 -61,-24 -61,35l-9 0c-73,-3 -61,-24 -61,35l-9 0 -61 31 -45 7 -61 29 -21 3839 60 48 65 0 73 39 33 -4 49 33 28 0 42 35 28 0 42 37 71 29 35 42 243 243 44 35 33 63c-3,55 -17,42 35,42l73 162c-5,60 -22,49 31,49l4 53c-5,64 -24,53 31,53l-3 70 42 130 -4 356 -31 97 -2 53 -44 62 9 44 -44 62 4 37 -35 42 -29 71c-57,0 -40,-13 -38,49l0 12c-53,0 -37,-12 -37,44l-38 35 -68 97c-60,0 -44,-15 -44,46l-97 66 -35 38 -35 40 -71 29 -42 35 -28 0 -42 35 -28 0 -42 35 -46 7 -70 27 -617 42 -71 -39 -70 2c0,-53 11,-36 -49,-31l-56 -4c0,-50 11,-36 -42,-33l-28 0 -35 -38 -35 0 -35 -35 -35 0 -35 -40 -141 -97 -35 -44 -31 -31 -35 -40 -71 9c-51,-6 -40,-18 -40,31l-35 35 -35 35 -35 35c-56,0 -44,-15 -44,37l-62 29 -42 37 -28 0c-59,3 -47,-14 -47,40l-80 38 -61 29 -45 7 -61 29 -41 7 -70 27 -195 12 -128 -3 -165 -9 -73 -27 -65 0 -62 -42 -35 4c0,-55 12,-39 -49,-33l-162 -71c0,-54 13,-40 -42,-37l-63 -33 -35 -44 -172 -172 -44 -35 -64 -106 -35 -44 0 -26 -35 -44 0 -26 -38 -35 0 -35 -31 -53 -4 -53 -39 -71 14 -53 -46 -168 0 -194 37 -150 -4 -35c51,-25 40,41 42,-76l-11 -73 44 -62 -4 -35c53,0 38,12 38,-44l0 -19c55,0 35,11 35,-54l0 -16 40 -42 64 -106 38 -35c49,0 36,11 32,-40 53,6 38,17 41,-38l24 -26 44 -37 35 -35 35 -38 59 -31c59,-3 47,14 47,-40l169 -71c55,3 42,17 42,-35l167 -35 49 -29c52,-634 31,-1273 31,-1909 0,-635 25,-1273 -35,-1905l-59 -44 -59 11 -67 2 -53 -44 -44 4c0,-53 11,-36 -49,-31l-42 -9 -49 -35 -71 -27 -35 -40 -313 -282 -44 -35 -33 -62c3,-56 18,-44 -35,-44l-62 -150 -44 -62 -2 -53 -29 -62 -4 -53 -33 -88 7 -428 26 -68 -2 -67 42 -62 -9 -44 46 -62 -4 -28 40 -42 29 -71c52,0 38,12 35,-42l0 -28 38 -35c51,0 35,11 35,-44l68 -97c50,0 38,13 38,-38l99 -66 42 -37 35 -40 71 -27 49 -38 9 0c65,-3 54,17 54,-37l16 0 61 -31 48 -7 62 -29 41 -7 61 -29 198 -12 199 11 144 -1 62 29 53 2 62 42 44 -4c0,50 -11,36 42,33l28 0 35 38 35 0 35 35 35 0 35 40 141 97 35 44 31 31 40 35 66 -4c53,5 41,17 35,-36 53,6 41,18 35,-35 51,6 40,18 40,-31l35 -35 35 -38 59 -31c59,-3 47,14 47,-40l28 0c55,3 42,17 42,-37l92 -35c61,5 49,22 49,-33l56 -2c61,5 49,22 49,-33l294 -37 188 0 153 2 62 42z"/>
    <path class="fil2" d="M3664 5282l-32 5c0,-51 13,-39 -37,-37 2,-50 14,-37 -37,-37l0 -21 11 -107 61 -83 52 -32 1257 -5c0,133 20,160 -40,279 -164,81 -998,40 -1235,37z"/>
    <path class="fil2" d="M4948 4663l-884 -16 -44 -33 -40 -35 0 -21 -29 -61 2 -45 33 -49 33 -33 35 -38 51 6c204,-2 636,-34 808,27 55,118 35,166 35,299z"/>
    <path class="fil2" d="M4945 5958c-247,-7 -713,27 -925,-34 0,-53 13,-40 -40,-40l0 -21 -29 -61 2 -41 33 -53 87 -56c197,-19 668,-47 838,17l33 290z"/>
    <path class="fil2" d="M4069 3965l-82 -57 1 -148 -6 -19c61,0 46,16 46,-44l19 0 66 -31 801 1c23,134 43,155 -7,282 -163,66 -645,35 -838,17z"/>
    <path class="fil2" d="M4067 6570l-83 -45 8 -146 -7 -29c56,0 42,14 42,-40l42 11 850 4 -23 235c-143,63 -658,37 -830,11z"/>
    <path class="fil3" d="M3001 7053l-4 -3814c60,632 35,1270 35,1905 0,636 21,1275 -31,1909z"/>
    <path class="fil2" d="M4919 6325l-850 -4c141,-102 638,-53 830,-45l63 66 -43 -18z"/>
    <path class="fil2" d="M3664 5282c237,3 1071,44 1235,-37 60,-119 40,-146 40,-279 90,416 -77,354 -425,353 -282,-1 -574,26 -850,-38z"/>
    <path class="fil2" d="M4067 6570c172,26 687,53 830,-11l23 -235 43 18 -10 251c-174,66 -739,67 -885,-23z"/>
    <path class="fil2" d="M4945 5958l-33 -290c-169,-64 -641,-36 -838,-17 139,-76 721,-74 869,-17 59,131 49,190 2,323z"/>
    <path class="fil2" d="M4069 3965c193,19 675,49 838,-17 51,-127 31,-148 7,-282 77,124 82,177 25,314 -148,61 -730,61 -870,-16z"/>
    <path class="fil2" d="M4948 4663c0,-133 20,-181 -35,-299 -171,-61 -604,-29 -808,-27 141,-58 696,-57 838,-6 69,136 54,192 5,331z"/>
    <path class="fil3" d="M5113 9198l336 -9c-115,81 -212,68 -336,9z"/>
    <path class="fil4" d="M5036 1087c125,-60 227,-65 346,10l-346 -10z"/>
    <path class="fil3" d="M3102 9198l300 6c-132,52 -170,56 -300,-6z"/>
    <path class="fil4" d="M3103 620c106,-39 101,-57 199,11l-199 -11z"/>
    <polygon class="fil2" points="3987,3908 3947,3838 3988,3760 "/>
    <polygon class="fil2" points="3983,6525 3947,6451 3992,6379 "/>
    <path class="fil4" d="M2562 771c0,-57 -12,-37 54,-37 0,55 11,35 -54,37z"/>
    <path class="fil3" d="M4328 1688c0,-61 -16,-46 44,-46 0,59 15,44 -44,46z"/>
    <path class="fil3" d="M6198 9308c0,-61 -16,-46 44,-46 0,59 15,44 -44,46z"/>
    <path class="fil3" d="M5881 8991c0,-61 -16,-46 44,-46 0,59 15,44 -44,46z"/>
    <path class="fil2" d="M3982 3741c3,-59 -13,-44 46,-44 0,60 15,44 -46,44z"/>
    <path class="fil4" d="M2080 7761c0,-65 -19,-54 35,-54 0,65 19,54 -35,54z"/>
    <path class="fil3" d="M6031 8786c0,-64 -19,-53 35,-53 0,64 19,53 -35,53z"/>
    <path class="fil4" d="M3378 7436c0,-57 -14,-42 42,-42 0,57 14,42 -42,42z"/>
    <path class="fil4" d="M2526 7262c0,-54 -12,-37 47,-40 0,54 12,37 -47,40z"/>
    <path class="fil4" d="M3655 9132c0,-54 -12,-37 47,-40 0,54 12,37 -47,40z"/>
    <path class="fil4" d="M4467 841c0,-54 -12,-37 47,-40 0,54 12,37 -47,40z"/>
    <path class="fil4" d="M5737 9096c0,-54 -12,-37 47,-40 0,54 12,37 -47,40z"/>
    <path class="fil5" d="M3867 9520c0,-54 -12,-37 47,-40 0,54 12,37 -47,40z"/>
    <path class="fil2" d="M3985 6350c0,-57 -14,-43 42,-40 0,54 13,40 -42,40z"/>
    <path class="fil5" d="M2288 7467c-5,-53 -16,-38 41,-38 -3,55 12,44 -41,38z"/>
    <path class="fil3" d="M5881 3064c0,-53 -12,-37 44,-40 0,53 12,37 -44,40z"/>
    <path class="fil3" d="M4227 1047c-6,-54 -18,-42 35,-36 6,53 18,41 -35,36z"/>
    <path class="fil3" d="M5890 2462c0,-56 -15,-44 35,-44 0,56 15,44 -35,44z"/>
    <path class="fil3" d="M6207 2779c0,-56 -15,-44 35,-44 0,56 15,44 -35,44z"/>
    <path class="fil3" d="M2115 1157c0,-56 -15,-44 35,-44 0,56 15,44 -35,44z"/>
    <path class="fil3" d="M4262 1011c-6,-53 -18,-41 35,-35 6,53 18,41 -35,35z"/>
    <path class="fil4" d="M5988 2991c0,-50 -11,-35 42,-35 0,50 11,35 -42,35z"/>
    <path class="fil6" d="M5531 9205l76 -44c-25,53 43,42 -76,44z"/>
    <path class="fil6" d="M1972 8071l42 -76c-2,117 9,51 -42,76z"/>
    <path class="fil2" d="M4048 3697c0,-59 -11,-36 66,-31l-66 31z"/>
    <path class="fil5" d="M5737 3134c0,-60 -12,-38 61,-35l-61 35z"/>
    <path class="fil5" d="M5807 3099c0,-60 -12,-38 61,-35l-61 35z"/>
    <polygon class="fil4" points="2879,3205 2938,3194 2938,3235 "/>
    <polygon class="fil6" points="2938,3235 2938,3194 2997,3238 "/>
    <path class="fil4" d="M2632 733c0,-58 -11,-36 61,-31l-61 31z"/>
    <path class="fil5" d="M2879 7577c0,-58 -11,-36 61,-31l-61 31z"/>
    <path class="fil2" d="M3954 5760c-5,-64 -23,-53 33,-53l-33 53z"/>
    <path class="fil4" d="M2573 3093l49 35c-62,5 -49,22 -49,-35z"/>
    <path class="fil4" d="M2503 808c0,-57 -13,-40 49,-38l-49 38z"/>
    <path class="fil5" d="M6386 9073c-3,-62 -19,-49 38,-49l-38 49z"/>
    <path class="fil4" d="M6066 8713l33 -54c3,65 22,54 -33,54z"/>
    <path class="fil3" d="M3420 7375l33 -53c3,64 21,53 -33,53z"/>
    <path class="fil2" d="M3630 5003c0,-55 -11,-37 52,-32l-52 32z"/>
    <path class="fil3" d="M6529 7948l31 53c-54,0 -36,11 -31,-53z"/>
    <path class="fil3" d="M2013 8794l31 53c-54,0 -36,11 -31,-53z"/>
    <path class="fil5" d="M4782 694l49 -33c0,55 12,39 -49,33z"/>
    <path class="fil4" d="M5770 7123c61,-5 49,-22 49,33l-49 -33z"/>
    <path class="fil5" d="M4676 729l49 -33c0,55 12,39 -49,33z"/>
    <path class="fil5" d="M2736 9557c61,-5 49,-22 49,33l-49 -33z"/>
    <path class="fil2" d="M3954 4452c-5,-61 -22,-49 33,-49l-33 49z"/>
    <path class="fil5" d="M6494 7845l31 49c-53,0 -36,11 -31,-49z"/>
    <path class="fil5" d="M5452 1091c60,-5 49,-22 49,31l-49 -31z"/>
    <path class="fil5" d="M4852 9592c60,-5 49,-22 49,31l-49 -31z"/>
    <path class="fil5" d="M2665 3137c60,-5 49,-22 49,31l-49 -31z"/>
    <path class="fil3" d="M3945 8883l40 -44c0,57 15,44 -40,44z"/>
    <path class="fil5" d="M2820 7617c0,-54 -13,-40 42,-40l-42 40z"/>
    <path class="fil4" d="M2115 7690c0,-56 -14,-42 40,-42l-40 42z"/>
    <path class="fil5" d="M4902 9125l42 37c-55,3 -42,17 -42,-37z"/>
    <path class="fil5" d="M2531 9449c55,-3 42,-17 42,37l-42 -37z"/>
    <path class="fil4" d="M3942 9480l42 -37c0,54 13,40 -42,37z"/>
    <path class="fil4" d="M5706 700c55,-3 42,-17 42,37l-42 -37z"/>
    <path class="fil5" d="M4542 802l42 -37c0,54 13,40 -42,37z"/>
    <path class="fil4" d="M1974 1376c0,-56 -14,-42 40,-42l-40 42z"/>
    <path class="fil4" d="M2672 1227l42 -40c0,54 13,40 -42,40z"/>
    <path class="fil4" d="M5607 1152l42 37c-55,3 -42,17 -42,-37z"/>
    <path class="fil4" d="M5918 7191c55,-3 42,-17 42,37l-42 -37z"/>
    <path class="fil3" d="M6346 2568l35 -44c3,56 18,44 -35,44z"/>
    <path class="fil3" d="M2042 2603c53,0 38,-12 35,44l-35 -44z"/>
    <path class="fil3" d="M2501 7930l35 -44c3,56 18,44 -35,44z"/>
    <path class="fil3" d="M2395 1545l35 -44c3,56 18,44 -35,44z"/>
    <path class="fil3" d="M6386 1359l35 44c-53,0 -38,12 -35,-44z"/>
    <path class="fil3" d="M6033 7921l35 44c-53,0 -38,12 -35,-44z"/>
    <path class="fil3" d="M2117 9015l35 44c-53,0 -38,12 -35,-44z"/>
    <path class="fil3" d="M4481 8697l35 44c-53,0 -38,12 -35,-44z"/>
    <path class="fil3" d="M2364 2241l35 44c-53,0 -38,12 -35,-44z"/>
    <path class="fil3" d="M2399 2312l35 44c-53,0 -38,12 -35,-44z"/>
    <path class="fil3" d="M6350 1289l35 44c-53,0 -38,12 -35,-44z"/>
    <path class="fil3" d="M6381 2497l35 -44c3,56 18,44 -35,44z"/>
    <path class="fil3" d="M2042 7824l38 -44c0,56 15,44 -38,44z"/>
    <path class="fil3" d="M2082 8944l35 44c-53,0 -38,12 -35,-44z"/>
    <path class="fil3" d="M2430 1474l38 -44c0,56 15,44 -38,44z"/>
    <path class="fil3" d="M5993 8847l38 -44c0,56 15,44 -38,44z"/>
    <path class="fil3" d="M5704 2641c0,-53 -12,-37 44,-37l-44 37z"/>
    <path class="fil3" d="M4514 1404c0,-56 -15,-44 37,-44l-37 44z"/>
    <path class="fil3" d="M4646 1265c0,-53 -12,-37 44,-37l-44 37z"/>
    <path class="fil3" d="M6348 9129c0,-56 -15,-44 37,-44l-37 44z"/>
    <path class="fil3" d="M4046 9414c0,-53 -12,-37 44,-37l-44 37z"/>
    <path class="fil3" d="M2353 7403c0,-53 -12,-37 44,-37l-44 37z"/>
    <path class="fil4" d="M2360 1615l35 -42c3,55 17,42 -35,42z"/>
    <path class="fil5" d="M2042 1263l35 -42c3,55 17,42 -35,42z"/>
    <path class="fil4" d="M5777 9586l42 -35c0,52 12,38 -42,35z"/>
    <path class="fil5" d="M4516 8770l35 42c-52,0 -38,12 -35,-42z"/>
    <path class="fil4" d="M4754 1190l42 -35c0,52 12,38 -42,35z"/>
    <path class="fil5" d="M3589 1159c55,-3 42,-17 42,35l-42 -35z"/>
    <path class="fil5" d="M6386 7641l35 42c-52,0 -38,12 -35,-42z"/>
    <path class="fil5" d="M2743 7152l42 -35c0,52 12,38 -42,35z"/>
    <path class="fil4" d="M5847 7156c55,-3 42,-17 42,35l-42 -35z"/>
    <path class="fil4" d="M5847 9551l42 -35c0,52 12,38 -42,35z"/>
    <path class="fil4" d="M2465 8001l35 -42c3,55 17,42 -35,42z"/>
    <path class="fil4" d="M6452 8953l35 -42c3,55 17,42 -35,42z"/>
    <path class="fil5" d="M5958 1509c52,0 38,-12 35,42l-35 -42z"/>
    <path class="fil4" d="M5918 9515l42 -35c0,52 12,38 -42,35z"/>
    <path class="fil5" d="M5600 2707l42 -35c0,52 12,38 -42,35z"/>
    <path class="fil5" d="M2355 912c0,-52 -12,-37 42,-37l-42 37z"/>
    <path class="fil2" d="M3980 5884c53,0 40,-13 40,40l-40 -40z"/>
    <path class="fil3" d="M3987 1606l33 44c-51,0 -36,11 -33,-44z"/>
    <path class="fil3" d="M6313 2638l33 -44c3,55 18,44 -33,44z"/>
    <path class="fil3" d="M6068 7992l33 44c-51,0 -36,11 -33,-44z"/>
    <path class="fil2" d="M4020 4614l44 33c-55,3 -44,18 -44,-33z"/>
    <path class="fil5" d="M4306 9231l35 40c-53,0 -41,13 -35,-40z"/>
    <path class="fil4" d="M4055 1686l42 33c-54,3 -42,17 -42,-33z"/>
    <path class="fil5" d="M4754 9555c54,-3 42,-17 42,33l-42 -33z"/>
    <path class="fil5" d="M3730 9092l42 -33c0,50 11,36 -42,33z"/>
    <path class="fil5" d="M2435 2384l33 42c-50,0 -36,11 -33,-42z"/>
    <path class="fil4" d="M5607 7542l42 33c-54,3 -42,17 -42,-33z"/>
    <path class="fil4" d="M2884 9132c54,-3 42,-17 42,33l-42 -33z"/>
    <path class="fil5" d="M3422 2913l33 42c-50,0 -36,11 -33,-42z"/>
    <path class="fil5" d="M3667 698l42 33c-54,3 -42,17 -42,-33z"/>
    <path class="fil3" d="M3385 2846l38 40c-51,0 -38,12 -38,-40z"/>
    <path class="fil3" d="M2536 1333l38 -40c0,52 13,40 -38,40z"/>
    <path class="fil4" d="M4088 8636l38 -40c0,52 13,40 -38,40z"/>
    <path class="fil2" d="M3595 5251c50,-2 37,-14 37,37l-37 -37z"/>
    <path class="fil2" d="M3558 5214c51,0 39,-13 37,37l-37 -37z"/>
    <path class="fil4" d="M2218 1016l38 -38c0,50 13,38 -38,38z"/>
    <path class="fil3" d="M2609 7789l32 -40c5,51 17,40 -32,40z"/>
    <path class="fil3" d="M4298 976l40 -31c0,49 11,37 -40,31z"/>
    <path class="fil3" d="M2256 7507l32 -40c5,51 17,40 -32,40z"/>
    <path class="fil5" d="M4196 9271c0,-49 -11,-37 40,-31l-40 31z"/>
    <path class="fil4" d="M2640 7749l39 -31c0,49 11,37 -39,31z"/>
    <polygon class="fil3" points="5581,659 5634,702 "/>
    <polygon class="fil3" points="3561,661 3623,702 "/>
    <polygon class="fil3" points="2741,696 2803,667 "/>
    <polygon class="fil5" points="3738,731 3773,769 "/>
    <polygon class="fil3" points="3808,769 3843,804 "/>
    <polygon class="fil3" points="3879,804 3914,844 "/>
    <polygon class="fil3" points="2397,874 2432,835 "/>
    <polygon class="fil3" points="5995,870 6031,914 "/>
    <polygon class="fil3" points="4373,910 4408,872 "/>
    <polygon class="fil3" points="4337,945 4373,910 "/>
    <polygon class="fil2" points="3980,4579 4020,4614 "/>
    <polygon class="fil2" points="3952,4496 3980,4557 "/>
    <polygon class="fil2" points="4020,4369 4055,4332 "/>
    <polygon class="fil2" points="3952,5802 3980,5863 "/>
    <polygon class="fil3" points="2758,3163 2812,3207 "/>
    <polygon class="fil5" points="5560,3201 5621,3172 "/>
    <polygon class="fil5" points="5666,3165 5727,3134 "/>
    <polygon class="fil5" points="2468,3026 2503,3066 "/>
    <polygon class="fil3" points="5078,3000 5118,2920 "/>
    <polygon class="fil3" points="6031,2956 6066,2921 "/>
    <polygon class="fil5" points="6066,2921 6101,2885 "/>
    <polygon class="fil5" points="6101,2885 6137,2846 "/>
    <polygon class="fil3" points="3094,2780 3306,2821 "/>
    <polygon class="fil2" points="5539,7039 5599,7088 "/>
    <polygon class="fil3" points="2953,7081 3001,7053 "/>
    <polygon class="fil4" points="5664,7088 5737,7127 "/>
    <polygon class="fil3" points="5246,2813 5307,2784 "/>
    <polygon class="fil3" points="6167,2815 6207,2779 "/>
    <polygon class="fil3" points="2926,2742 2988,2784 "/>
    <polygon class="fil3" points="5413,2775 5484,2749 "/>
    <polygon class="fil3" points="2110,2709 2155,2744 "/>
    <polygon class="fil3" points="6031,7258 6066,7299 "/>
    <polygon class="fil3" points="5083,7277 5111,7339 "/>
    <polygon class="fil4" points="2432,7330 2468,7293 "/>
    <polygon class="fil3" points="2820,2709 2856,2744 "/>
    <polygon class="fil3" points="2397,7366 2432,7330 "/>
    <polygon class="fil5" points="5111,7366 5153,7401 "/>
    <polygon class="fil3" points="2750,2674 2785,2709 "/>
    <polygon class="fil3" points="6275,2674 6313,2638 "/>
    <polygon class="fil3" points="5184,7432 5219,7471 "/>
    <polygon class="fil4" points="2644,2599 2679,2643 "/>
    <polygon class="fil3" points="5290,7469 5405,7507 "/>
    <polygon class="fil3" points="3156,7502 3261,7476 "/>
    <polygon class="fil3" points="5501,7505 5563,7546 "/>
    <polygon class="fil3" points="2988,7540 3050,7511 "/>
    <polygon class="fil3" points="2218,7542 2256,7507 "/>
    <polygon class="fil3" points="6309,7542 6353,7577 "/>
    <polygon class="fil4" points="5748,2603 5784,2568 "/>
    <polygon class="fil4" points="5784,2568 5819,2530 "/>
    <polygon class="fil4" points="5678,7575 5713,7613 "/>
    <polygon class="fil3" points="5852,2497 5890,2462 "/>
    <polygon class="fil3" points="5748,7613 5784,7652 "/>
    <polygon class="fil3" points="1980,2453 1936,2391 "/>
    <polygon class="fil5" points="2715,7683 2750,7646 "/>
    <polygon class="fil4" points="2468,2427 2507,2462 "/>
    <polygon class="fil3" points="2679,7718 2715,7683 "/>
    <polygon class="fil3" points="6412,2418 6456,2356 "/>
    <polygon class="fil3" points="2569,7824 2609,7789 "/>
    <polygon class="fil3" points="1905,2277 1934,2338 "/>
    <polygon class="fil5" points="6458,2300 6487,2238 "/>
    <polygon class="fil3" points="5991,7859 6033,7895 "/>
    <polygon class="fil4" points="6000,2264 6028,2203 "/>
    <polygon class="fil3" points="2003,7921 2046,7859 "/>
    <polygon class="fil3" points="1901,2224 1868,2136 "/>
    <polygon class="fil3" points="2329,2136 2360,2189 "/>
    <polygon class="fil3" points="6478,2197 6525,2030 "/>
    <polygon class="fil3" points="6035,2162 6062,2092 "/>
    <polygon class="fil3" points="2437,8089 2465,8027 "/>
    <polygon class="fil3" points="2326,2012 2326,1853 "/>
    <polygon class="fil3" points="6104,8097 6134,8151 "/>
    <polygon class="fil3" points="2401,8195 2430,8133 "/>
    <polygon class="fil5" points="6599,8200 6556,8071 "/>
    <polygon class="fil3" points="1939,8256 1976,8106 "/>
    <polygon class="fil3" points="6137,8433 6137,8274 "/>
    <polygon class="fil3" points="2401,8512 2428,8583 "/>
    <polygon class="fil4" points="6106,8614 6134,8553 "/>
    <polygon class="fil4" points="4373,8565 4408,8605 "/>
    <polygon class="fil3" points="6564,8653 6595,8556 "/>
    <polygon class="fil3" points="6525,1836 6487,1686 "/>
    <polygon class="fil3" points="1985,8618 1939,8450 "/>
    <polygon class="fil3" points="4439,8636 4481,8671 "/>
    <polygon class="fil4" points="4149,1723 4220,1726 "/>
    <polygon class="fil3" points="2474,8698 2435,8627 "/>
    <polygon class="fil3" points="6035,1704 6062,1774 "/>
    <polygon class="fil3" points="2009,8741 1970,8671 "/>
    <polygon class="fil3" points="6518,8768 6562,8706 "/>
    <polygon class="fil3" points="2322,1713 2364,1650 "/>
    <polygon class="fil4" points="1875,1707 1901,1639 "/>
    <polygon class="fil5" points="4020,1651 4055,1686 "/>
    <polygon class="fil4" points="5126,623 5313,623 "/>
    <polygon class="fil3" points="6483,8874 6527,8812 "/>
    <polygon class="fil3" points="6031,1651 5987,1587 "/>
    <polygon class="fil5" points="2536,8847 2573,8883 "/>
    <polygon class="fil4" points="2573,8883 2613,8918 "/>
    <polygon class="fil3" points="2044,8883 2082,8918 "/>
    <polygon class="fil3" points="6495,1608 6456,1533 "/>
    <polygon class="fil5" points="4615,8918 4655,8953 "/>
    <polygon class="fil3" points="1899,1571 1941,1509 "/>
    <polygon class="fil3" points="4655,8953 4690,8993 "/>
    <polygon class="fil3" points="3949,1545 3987,1580 "/>
    <polygon class="fil3" points="3912,1474 3949,1509 "/>
    <polygon class="fil4" points="3773,9059 3808,9021 "/>
    <polygon class="fil3" points="2715,9019 2750,9063 "/>
    <polygon class="fil3" points="1932,1466 1978,1403 "/>
    <polygon class="fil3" points="6421,1430 6450,1492 "/>
    <polygon class="fil3" points="4476,1439 4514,1404 "/>
    <polygon class="fil3" points="5885,1404 5929,1439 "/>
    <polygon class="fil3" points="3804,1333 3848,1368 "/>
    <polygon class="fil3" points="2820,9094 2856,9132 "/>
    <polygon class="fil3" points="6311,9165 6348,9129 "/>
    <polygon class="fil3" points="3738,1258 3773,1302 "/>
    <polygon class="fil4" points="3585,9163 3646,9132 "/>
    <polygon class="fil3" points="6313,1227 6350,1263 "/>
    <polygon class="fil5" points="4690,1227 4725,1190 "/>
    <polygon class="fil3" points="5007,9163 5070,9207 "/>
    <polygon class="fil2" points="3558,5193 3569,5086 "/>
    <polygon class="fil3" points="2970,9160 3023,9204 "/>
    <polygon class="fil3" points="2216,9165 2260,9200 "/>
    <polygon class="fil3" points="5678,1190 5713,1232 "/>
    <polygon class="fil3" points="4236,9240 4306,9231 "/>
    <polygon class="fil3" points="2077,1192 2115,1157 "/>
    <polygon class="fil3" points="3526,1121 3561,1159 "/>
    <polygon class="fil3" points="5466,625 5528,667 "/>
    <polygon class="fil4" points="6242,1121 6282,1157 "/>
    <polygon class="fil3" points="2882,1119 2944,1091 "/>
    <polygon class="fil3" points="4161,9306 4196,9271 "/>
    <polygon class="fil4" points="4373,9301 4408,9346 "/>
    <polygon class="fil3" points="4126,9341 4161,9306 "/>
    <polygon class="fil3" points="4090,9376 4126,9341 "/>
    <polygon class="fil5" points="6066,9412 6101,9374 "/>
    <polygon class="fil3" points="3420,1084 3482,1126 "/>
    <polygon class="fil4" points="2432,9372 2468,9416 "/>
    <polygon class="fil3" points="6031,9451 6066,9412 "/>
    <polygon class="fil4" points="4549,9443 4584,9482 "/>
    <polygon class="fil5" points="4890,1119 4951,1091 "/>
    <polygon class="fil3" points="6203,1086 6242,1121 "/>
    <polygon class="fil3" points="3015,1082 3120,1055 "/>
    <polygon class="fil3" points="4620,9482 4655,9518 "/>
    <polygon class="fil3" points="3208,1049 3376,1093 "/>
    <polygon class="fil5" points="4161,1051 4227,1047 "/>
    <polygon class="fil5" points="4690,9518 4725,9555 "/>
    <polygon class="fil5" points="4121,1016 4161,1051 "/>
    <polygon class="fil3" points="3446,630 3508,658 "/>
    <polygon class="fil5" points="3726,9586 3787,9557 "/>
    <polygon class="fil3" points="4055,941 4090,985 "/>
    <polygon class="fil3" points="5660,9619 5731,9592 "/>
    <polygon class="fil4" points="2844,661 2905,632 "/>
    <polygon class="fil5" points="3620,9621 3681,9592 "/>
    <polygon class="fil3" points="2820,9586 2882,9628 "/>
    <polygon class="fil3" points="4972,9621 5043,9661 "/>
    <polygon class="fil3" points="3508,9654 3579,9628 "/>
    <polygon class="fil5" points="2947,9628 3020,9654 "/>
    <polygon class="fil3" points="3185,9663 3314,9667 "/>
   </g>
   <path class="fil7" d="M6054 5955l0 -1294 197 0 0 183c40,-63 94,-114 162,-152 67,-39 144,-58 230,-58 96,0 174,20 235,59 61,40 104,95 129,167 103,-151 236,-226 401,-226 129,0 228,35 297,106 69,71 104,180 104,328l0 887 -219 0 0 -814c0,-87 -7,-150 -22,-189 -14,-39 -40,-69 -78,-93 -37,-24 -81,-35 -132,-35 -91,0 -167,30 -227,91 -60,61 -90,157 -90,290l0 751 -219 0 0 -839c0,-97 -18,-170 -54,-219 -36,-49 -94,-73 -175,-73 -61,0 -118,16 -171,49 -52,32 -90,80 -114,142 -23,62 -35,152 -35,270l0 670 -219 0zm2552 -196l30 194c-61,13 -117,20 -165,20 -79,0 -141,-12 -185,-38 -44,-25 -74,-58 -92,-99 -18,-41 -27,-128 -27,-259l0 -745 -162 0 0 -169 162 0 0 -320 219 -132 0 452 219 0 0 169 -219 0 0 758c0,63 4,103 12,121 7,18 20,32 37,43 17,10 42,16 75,16 24,0 56,-3 96,-9z"/>
  </g>
 </g>
</svg>
