<?xml version="1.0" encoding="UTF-8"?>
<!DOCTYPE svg PUBLIC "-//W3C//DTD SVG 1.1//EN" "http://www.w3.org/Graphics/SVG/1.1/DTD/svg11.dtd">
<!-- Creator: CorelDRAW 2017 -->
<svg xmlns="http://www.w3.org/2000/svg" xml:space="preserve" width="29.7cm" height="21cm" version="1.1" style="shape-rendering:geometricPrecision; text-rendering:geometricPrecision; image-rendering:optimizeQuality; fill-rule:evenodd; clip-rule:evenodd"
viewBox="0 0 29700 21000"
 xmlns:xlink="http://www.w3.org/1999/xlink">
 <defs>
  <style type="text/css">
   <![CDATA[
    .fil2 {fill:#006633}
    .fil6 {fill:#606060}
    .fil5 {fill:#7B7B7B}
    .fil3 {fill:#959595}
    .fil4 {fill:#AFAFAF}
    .fil1 {fill:#DECE3C}
    .fil0 {fill:#FCF8A9}
    .fil7 {fill:#41D15E;fill-rule:nonzero}
   ]]>
  </style>
 </defs>
 <g id="Layer_x0020_1">
  <metadata id="CorelCorpID_0Corel-Layer"/>
  <g id="_1947660037840">
   <path class="fil0" d="M8217 13520c301,186 1466,183 1824,47l21 -517 -130 -136c-396,-19 -1420,-118 -1711,93l-87 -23c-118,-6 -87,-33 -87,82l14 60 -93 148 76 153 171 93 2 0zm-97 -1332c437,126 1398,56 1907,70 97,-274 118,-398 -4,-666 -305,-120 -1505,-122 -1792,35l-179 115c-118,0 -78,-25 -68,109l-4 85 60 126 0 43 82 82 -2 0 0 1zm-876 -1387l76 76 66 -10c569,132 1169,76 1752,78 717,2 1064,128 876,-728l-2591 10c-130,-10 -107,-47 -107,66l-126 171 -23 221 0 43 76 76 0 -4 1 1zm876 -1313c0,105 -23,74 91,68l1822 33c101,-289 132,-404 -10,-682 -293,-105 -1439,-109 -1728,12l-105 -12 -72 78 -68 68c-113,0 -80,-25 -68,101l-4 93 60 126 0 43 82 72zm101 -1336c291,157 1488,159 1794,33 118,-282 109,-392 -52,-647l-1651 -2c-157,-10 -136,-58 -136,64l-39 0c-122,0 -89,-31 -95,91l12 39 -85 161 82 144 169 118 1 -1zm-1429 -5923l91 -19 128 87 91 -8 72 78 58 0 87 72 219 132 72 91 64 64 91 72 132 219 78 72 0 72 78 72 0 54c-6,113 -37,91 68,91l72 72c0,103 -23,74 87,68l107 8 144 4 225 -78c122,-6 91,27 91,-95l214 -419 78 -72 76 -91 196 -196 91 -76 72 -78 58 0c113,6 87,35 87,-72l194 -72 126 -60 175 -6 713 21 144 -14 101 64 219 64c0,111 -27,82 87,76l58 0 72 87 355 355 91 72 60 146 72 87 -12 72 89 132 8 109 56 144 0 656 -56 144 -14 85 -60 126 -155 315c-105,0 -72,-23 -72,91l-78 72 -68 68 -72 78 -72 72c-115,0 -91,-31 -91,76l-128 64 -87 72 -239 87 -144 56 -219 19 -128 60 -264 223 -82 165 8 8817 60 128 0 54 87 72 64 64 72 82 144 -4 237 76 200 -4 128 87 91 -8c0,103 -23,74 87,68l58 0 72 78 72 0 72 82 427 427 87 72 0 54c-6,115 -37,91 72,91l0 54c-6,113 -37,91 68,91l4 128 64 109 4 254 0 328 -4 247 -60 126 -14 93 -68 111 0 39c-111,0 -72,-23 -72,109l0 35 -78 91 -140 200c-124,0 -91,-31 -91,95l-200 136c-122,6 -97,-29 -97,82l-266 132 -157 91 -169 -33 -693 19 -91 19 -128 -91 -130 0 -87 -76 -437 -272 -72 -82 -82 -72 -132 -219 -72 -87 0 -58 -72 -91 0 -54 -87 -72 -64 -64 -72 -82 -509 64 -78 82 -214 419 -82 91 -282 287 -72 78 -87 68 -58 0c-122,6 -97,-29 -97,82l-19 0 -126 64 -375 87 -618 -12 -163 12 -109 -91 -91 8c0,-103 23,-74 -87,-68l-58 0 -72 -78 -146 -64 -72 -91 -208 -208 -82 -72 -78 -72 -128 -309 -82 -146 -14 -91 -56 -144 0 -656 60 -128 14 -91 60 -128 0 -54c107,0 78,25 72,-87l0 -58c109,0 78,25 72,-91l68 -128 82 -72c101,0 74,23 66,-82 103,12 80,37 80,-64l72 -72 72 -78 146 -60 87 -82 33 0 126 -64 99 -14 128 -60 219 -19 219 -56 239 -82c118,0 87,29 87,-87l0 -39c111,0 74,23 68,-109l4 -9001 -68 -87 0 -58 -78 -82 -163 -49 -437 -87 -219 8 -128 -87 -144 4 -72 -72 -72 0 -72 -72 -146 -64 -72 -91 -282 -282 -82 -72 -68 -87 0 -58 -72 -91 0 -54 -72 -91 -8 -109 -64 -109 -4 -254 0 -328 -8 -291 87 -128 -8 -72c107,0 78,25 72,-87l0 -58c109,0 78,25 72,-91l0 -54c109,0 78,25 78,-91l140 -200c105,0 78,25 78,-82l204 -136c115,0 87,29 87,-82l344 -140 128 -60 146 -19 219 -56 181 -12 346 91 6 4 -8 0z"/>
   <path class="fil1" d="M4524 4336l64 109 8 109c-6,115 -37,91 72,91l0 54c-6,115 -37,91 72,91l0 58c-6,111 -35,87 68,87l82 72 282 282 72 91 146 64 72 72 72 0 72 72 144 -4 128 87 219 -8 437 87 163 49c0,107 -27,82 78,82l0 58c-6,111 -35,87 68,87l-4 9001 -68 109 0 39c-118,0 -87,-29 -87,87l-239 82 -219 56 -219 19 -128 60 -99 14c-148,-10 -126,-56 -126,64l-33 0c-115,0 -87,-29 -87,82l-146 60 -72 78 -72 72 -80 64 -66 82 -82 72 -68 128 -72 91 0 58 -72 87 0 54 -60 128 -14 91 -60 128 0 656 56 144 14 91 82 146 128 309 78 72 82 72 208 208 72 91 146 64 72 78 58 0 87 68 91 -8 109 91 163 -12c268,128 346,120 618,12l375 -87 126 -64 19 0c122,-6 97,29 97,-82l58 0c111,6 87,35 87,-68l72 -78 282 -287c113,0 82,27 82,-91l214 -419c105,0 78,25 78,-82l509 -64 72 82 64 64 87 72 0 54c-6,115 -37,91 72,91l0 58c-6,113 -35,87 72,87l132 219 82 72 72 82 437 272c0,111 -27,82 87,76l130 0 128 91 91 -19c256,122 454,148 693,-19l169 33c245,-4 105,19 157,-91l266 -132c122,-6 97,29 97,-82l200 -136c122,-6 91,27 91,-95l140 -200c109,0 78,25 78,-91l0 -35c111,0 72,23 72,-109l0 -39c113,0 74,23 68,-111l14 -93 60 -126 4 -247 0 -328 -4 -254 -64 -109 -4 -128 -68 -91 0 -54 -72 -91 0 -54 -87 -72 -427 -427 -72 -82 -72 0 -72 -78 -58 0 -87 -68 -91 8 -128 -87 -200 4 -237 -76 -144 4 -72 -82 -64 -64 -87 -72 0 -54 -60 -128 -8 -8817 82 -165 264 -223 128 -60 219 -19 144 -56 239 -87c113,6 87,35 87,-72l128 -64 91 -76 72 -72 72 -78 68 -68 78 -72c105,0 72,23 72,-91l155 -315 60 -126 14 -85 56 -144 0 -656 -56 -144 -8 -109 -89 -132 12 -72c6,-113 35,-87 -72,-87l-60 -146 -91 -72 -355 -355 -72 -87 -58 0 -87 -76 -219 -64c0,-109 23,-74 -101,-64l-144 14c-245,-155 -458,-144 -713,-21l-175 6 -126 60 -194 72 -87 72 -58 0 -72 78c-115,0 -91,-31 -91,76l-196 196c-109,0 -76,-25 -76,91l-78 72 -214 419c-124,0 -91,-31 -91,95l-225 78 -144 -4 -107 -8 -87 -68 -72 -72 -68 -91 0 -54 -78 -72 0 -72 -78 -72 -132 -219 -91 -72 -64 -64 -72 -91 -219 -132c0,-107 25,-78 -87,-72l-58 0 -72 -78 -91 8 -128 -87 -91 19 -346 -91 -181 12 -219 56 -146 19 -128 60 -344 140 -87 82 -204 136 -78 82 -140 200 -78 91 0 54 -72 91 0 58 -72 87 8 72 -87 128 8 291 0 328 4 254 -6 -4 8 0zm6595 -3026l109 -19 109 91 148 -4 87 76 509 272 72 91 355 355 82 72 82 72 64 146 78 72 0 54c-6,115 -37,91 72,91l0 54c-6,115 -37,91 72,91l0 54 60 128 14 85 80 155 -16 159 76 309 0 400 -95 346 19 85 -60 126 -4 115 -91 128 8 72 -72 91 0 54 -72 91 0 54 -68 91 -78 72 -68 128c-105,0 -72,-23 -72,91l-82 72 -64 64 -72 82 -72 72 -72 72c-111,0 -87,-31 -87,72l-130 68c-115,6 -91,-27 -91,82l-25 0c-150,-6 -126,-49 -126,72l-19 0c-150,-6 -126,-49 -126,72l-19 0 -126 64 -93 14 -126 60 -43 7914 124 99 134 0 151 80 68 -8 101 68 58 0 87 72 58 0 87 76 146 60 72 87 501 501 91 72 68 130c-6,113 -35,87 72,87l150 334c-10,124 -45,101 64,101l8 109c-10,132 -49,109 64,109l-6 144 87 268 -8 734 -64 200 -4 109 -91 128 19 91 -91 128 8 76 -72 87 -60 146c-118,0 -82,-27 -78,101l0 25c-109,0 -76,-25 -76,91l-78 72 -140 200c-124,0 -91,-31 -91,95l-200 136 -72 78 -72 82 -146 60 -87 72 -58 0 -87 72 -58 0 -87 72 -95 14 -144 56 -1272 87 -146 -80 -144 4c0,-109 23,-74 -101,-64l-115 -8c0,-103 23,-74 -87,-68l-58 0 -72 -78 -72 0 -72 -72 -72 0 -72 -82 -291 -200 -72 -91 -64 -64 -72 -82 -146 19c-105,-12 -82,-37 -82,64l-72 72 -72 72 -72 72c-115,0 -91,-31 -91,76l-128 60 -87 76 -58 0c-122,6 -97,-29 -97,82l-165 78 -126 60 -93 14 -126 60 -85 14 -144 56 -402 25 -264 -6 -340 -19 -150 -56 -134 0 -128 -87 -72 8c0,-113 25,-80 -101,-68l-334 -146c0,-111 27,-82 -87,-76l-130 -68 -72 -91 -355 -355 -91 -72 -132 -219 -72 -91 0 -54 -72 -91 0 -54 -78 -72 0 -72 -64 -109 -8 -109 -80 -146 29 -109 -95 -346 0 -400 76 -309 -8 -72c105,-52 82,85 87,-157l-23 -150 91 -128 -8 -72c109,0 78,25 78,-91l0 -39c113,0 72,23 72,-111l0 -33 82 -87 132 -219 78 -72c101,0 74,23 66,-82 109,12 78,35 85,-78l49 -54 91 -76 72 -72 72 -78 122 -64c122,-6 97,29 97,-82l348 -146c113,6 87,35 87,-72l344 -72 101 -60c107,-1307 64,-2624 64,-3936 0,-1309 52,-2624 -72,-3927l-122 -91 -122 23 -138 4 -109 -91 -91 8c0,-109 23,-74 -101,-64l-87 -19 -101 -72 -146 -56 -72 -82 -645 -581 -91 -72 -68 -128c6,-115 37,-91 -72,-91l-128 -309 -91 -128 -4 -109 -60 -128 -8 -109 -68 -181 14 -882 54 -140 -4 -138 87 -128 -19 -91 95 -128 -8 -58 82 -87 60 -146c107,0 78,25 72,-87l0 -58 78 -72c105,0 72,23 72,-91l140 -200c103,0 78,27 78,-78l204 -136 87 -76 72 -82 146 -56 101 -78 19 0c134,-6 111,35 111,-76l33 0 126 -64 99 -14 128 -60 85 -14 126 -60 408 -25 410 23 297 -2 128 60 109 4 128 87 91 -8c0,103 -23,74 87,68l58 0 72 78 72 0 72 72 72 0 72 82 291 200 72 91 64 64 82 72 136 -8c109,10 85,35 72,-74 109,12 85,37 72,-72 105,12 82,37 82,-64l72 -72 72 -78 122 -64c122,-6 97,29 97,-82l58 0c113,6 87,35 87,-76l190 -72c126,10 101,45 101,-68l115 -4c126,10 101,45 101,-68l606 -76 388 0 315 4 128 87 -21 6 3 -6z"/>
   <path class="fil2" d="M7277 10821l-66 10c0,-105 27,-80 -76,-76 4,-103 29,-76 -76,-76l0 -43 23 -221 126 -171 107 -66 2591 -10c0,274 41,330 -82,575 -338,167 -2057,82 -2546,76l0 2 -1 0z"/>
   <path class="fil2" d="M9924 9545l-1822 -33 -91 -68 -82 -72 0 -43 -60 -126 4 -93 68 -101 68 -68 72 -78 105 12c421,-4 1311,-70 1666,56 113,243 72,342 72,616l0 -2z"/>
   <path class="fil2" d="M9918 12215c-509,-14 -1470,56 -1907,-70 0,-109 27,-82 -82,-82l0 -43 -60 -126 4 -85 68 -109 179 -115c406,-39 1377,-97 1728,35l68 598 2 -2 0 -1z"/>
   <path class="fil2" d="M8112 8106l-169 -118 2 -305 -12 -39c126,0 95,33 95,-91l39 0 136 -64 1651 2c47,276 89,320 -14,581 -336,136 -1330,72 -1728,35l0 -2 0 1z"/>
   <path class="fil2" d="M8108 13477l-171 -93 17 -301 -14 -60c115,0 87,29 87,-82l87 23 1752 8 -47 484c-295,130 -1357,76 -1711,23l2 -2 -2 0z"/>
   <path class="fil3" d="M5910 14472l-8 -7863c124,1303 72,2618 72,3927 0,1311 43,2629 -64,3936z"/>
   <path class="fil2" d="M9864 12972l-1752 -8c291,-210 1315,-109 1711,-93l130 136 -89 -37 0 2z"/>
   <path class="fil2" d="M7277 10821c489,6 2208,91 2546,-76 124,-245 82,-301 82,-575 186,858 -159,730 -876,728 -581,-2 -1183,54 -1752,-78l0 2 0 -1z"/>
   <path class="fil2" d="M8108 13477c355,54 1416,109 1711,-23l47 -484 89 37 -21 517c-359,136 -1524,138 -1825,-47l-2 0 1 0z"/>
   <path class="fil2" d="M9918 12215l-68 -598c-348,-132 -1321,-74 -1728,-35 287,-157 1486,-153 1792,-35 122,270 101,392 4,666l0 2z"/>
   <path class="fil2" d="M8112 8106c398,39 1392,101 1728,-35 105,-262 64,-305 14,-581 159,256 169,365 52,647 -305,126 -1505,126 -1794,-33l0 2z"/>
   <path class="fil2" d="M9924 9545c0,-274 41,-373 -72,-616 -353,-126 -1245,-60 -1666,-56 291,-120 1435,-118 1728,-12 142,280 111,396 10,682l0 2z"/>
   <path class="fil3" d="M10264 18894l693 -19c-237,167 -437,140 -693,19z"/>
   <path class="fil4" d="M10105 2173c258,-124 468,-134 713,21l-713 -21z"/>
   <path class="fil3" d="M6118 18894l618 12c-272,107 -350,115 -618,-12z"/>
   <path class="fil4" d="M6120 1210c219,-80 208,-118 410,23l-410 -23z"/>
   <polygon class="fil2" points="7943,7989 7860,7844 7945,7684 "/>
   <polygon class="fil2" points="7934,13384 7860,13231 7953,13083 "/>
   <path class="fil4" d="M5005 1521c0,-118 -25,-76 111,-76 0,113 23,72 -111,76z"/>
   <path class="fil3" d="M8646 3412c0,-126 -33,-95 91,-95 0,122 31,91 -91,95z"/>
   <path class="fil3" d="M12501 19121c0,-126 -33,-95 91,-95 0,122 31,91 -91,95z"/>
   <path class="fil3" d="M11847 18468c0,-126 -33,-95 91,-95 0,122 31,91 -91,95z"/>
   <path class="fil2" d="M7932 7644c6,-122 -27,-91 95,-91 0,124 31,91 -95,91z"/>
   <path class="fil4" d="M4011 15932c0,-134 -39,-111 72,-111 0,134 39,111 -72,111z"/>
   <path class="fil3" d="M12156 18045c0,-132 -39,-109 72,-109 0,132 39,109 -72,109z"/>
   <path class="fil4" d="M6687 15262c0,-118 -29,-87 87,-87 0,118 29,87 -87,87z"/>
   <path class="fil4" d="M4931 14903c0,-111 -25,-76 97,-82 0,111 25,76 -97,82z"/>
   <path class="fil4" d="M7258 18758c0,-111 -25,-76 97,-82 0,111 25,76 -97,82z"/>
   <path class="fil4" d="M8932 1666c0,-111 -25,-76 97,-82 0,111 25,76 -97,82z"/>
   <path class="fil4" d="M11550 18684c0,-111 -25,-76 97,-82 0,111 25,76 -97,82z"/>
   <path class="fil5" d="M7695 19558c0,-111 -25,-76 97,-82 0,111 25,76 -97,82z"/>
   <path class="fil2" d="M7938 13023c0,-118 -29,-89 87,-82 0,111 27,82 -87,82z"/>
   <path class="fil5" d="M4440 15326c-10,-109 -33,-78 85,-78 -6,113 25,91 -85,78z"/>
   <path class="fil3" d="M11847 6249c0,-109 -25,-76 91,-82 0,109 25,76 -91,82z"/>
   <path class="fil3" d="M8437 2090c-12,-111 -37,-87 72,-74 12,109 37,85 -72,74z"/>
   <path class="fil3" d="M11866 5008c0,-115 -31,-91 72,-91 0,115 31,91 -72,91z"/>
   <path class="fil3" d="M12519 5661c0,-115 -31,-91 72,-91 0,115 31,91 -72,91z"/>
   <path class="fil3" d="M4083 2317c0,-115 -31,-91 72,-91 0,115 31,91 -72,91z"/>
   <path class="fil3" d="M8510 2016c-12,-109 -37,-85 72,-72 12,109 37,85 -72,72z"/>
   <path class="fil4" d="M12068 6098c0,-103 -23,-72 87,-72 0,103 23,72 -87,72z"/>
   <path class="fil6" d="M11126 18909l157 -91c-52,109 89,87 -157,91z"/>
   <path class="fil6" d="M3788 16571l87 -157c-4,241 19,105 -87,157z"/>
   <path class="fil2" d="M8068 7554c0,-122 -23,-74 136,-64l-136 64z"/>
   <path class="fil5" d="M11550 6393c0,-124 -25,-78 126,-72l-126 72z"/>
   <path class="fil5" d="M11695 6321c0,-124 -25,-78 126,-72l-126 72z"/>
   <polygon class="fil4" points="5658,6539 5780,6517 5780,6601 "/>
   <polygon class="fil6" points="5780,6601 5780,6517 5902,6607 "/>
   <path class="fil4" d="M5149 1443c0,-120 -23,-74 126,-64l-126 64z"/>
   <path class="fil5" d="M5658 15553c0,-120 -23,-74 126,-64l-126 64z"/>
   <path class="fil2" d="M7875 11807c-10,-132 -47,-109 68,-109l-68 109z"/>
   <path class="fil4" d="M5028 6308l101 72c-128,10 -101,45 -101,-72z"/>
   <path class="fil4" d="M4883 1598c0,-118 -27,-82 101,-78l-101 78z"/>
   <path class="fil5" d="M12888 18637c-6,-128 -39,-101 78,-101l-78 101z"/>
   <path class="fil4" d="M12229 17895l68 -111c6,134 45,111 -68,111z"/>
   <path class="fil3" d="M6774 15136l68 -109c6,132 43,109 -68,109z"/>
   <path class="fil2" d="M7207 10246c0,-113 -23,-76 107,-66l-107 66z"/>
   <path class="fil3" d="M13183 16317l64 109c-111,0 -74,23 -64,-109z"/>
   <path class="fil3" d="M3873 18062l64 109c-111,0 -74,23 -64,-109z"/>
   <path class="fil5" d="M9582 1363l101 -68c0,113 25,80 -101,68z"/>
   <path class="fil4" d="M11618 14617c126,-10 101,-45 101,68l-101 -68z"/>
   <path class="fil5" d="M9363 1435l101 -68c0,113 25,80 -101,68z"/>
   <path class="fil5" d="M5364 19635c126,-10 101,-45 101,68l-101 -68z"/>
   <path class="fil2" d="M7875 9110c-10,-126 -45,-101 68,-101l-68 101z"/>
   <path class="fil5" d="M13111 16105l64 101c-109,0 -74,23 -64,-101z"/>
   <path class="fil5" d="M10963 2181c124,-10 101,-45 101,64l-101 -64z"/>
   <path class="fil5" d="M9726 19707c124,-10 101,-45 101,64l-101 -64z"/>
   <path class="fil5" d="M5217 6399c124,-10 101,-45 101,64l-101 -64z"/>
   <path class="fil3" d="M7856 18245l82 -91c0,118 31,91 -82,91z"/>
   <path class="fil5" d="M5537 15635c0,-111 -27,-82 87,-82l-87 82z"/>
   <path class="fil4" d="M4083 15786c0,-115 -29,-87 82,-87l-82 87z"/>
   <path class="fil5" d="M9829 18744l87 76c-113,6 -87,35 -87,-76z"/>
   <path class="fil5" d="M4941 19412c113,-6 87,-35 87,76l-87 -76z"/>
   <path class="fil4" d="M7850 19476l87 -76c0,111 27,82 -87,76z"/>
   <path class="fil4" d="M11486 1375c113,-6 87,-35 87,76l-87 -76z"/>
   <path class="fil5" d="M9087 1585l87 -76c0,111 27,82 -87,76z"/>
   <path class="fil4" d="M3793 2769c0,-115 -29,-87 82,-87l-82 87z"/>
   <path class="fil4" d="M5232 2462l87 -82c0,111 27,82 -87,82z"/>
   <path class="fil4" d="M11282 2307l87 76c-113,6 -87,35 -87,-76z"/>
   <path class="fil4" d="M11924 14757c113,-6 87,-35 87,76l-87 -76z"/>
   <path class="fil3" d="M12806 5226l72 -91c6,115 37,91 -72,91z"/>
   <path class="fil3" d="M3933 5298c109,0 78,-25 72,91l-72 -91z"/>
   <path class="fil3" d="M4879 16280l72 -91c6,115 37,91 -72,91z"/>
   <path class="fil3" d="M4661 3117l72 -91c6,115 37,91 -72,91z"/>
   <path class="fil3" d="M12888 2734l72 91c-109,0 -78,25 -72,-91z"/>
   <path class="fil3" d="M12161 16262l72 91c-109,0 -78,25 -72,-91z"/>
   <path class="fil3" d="M4087 18517l72 91c-109,0 -78,25 -72,-91z"/>
   <path class="fil3" d="M8961 17862l72 91c-109,0 -78,25 -72,-91z"/>
   <path class="fil3" d="M4597 4552l72 91c-109,0 -78,25 -72,-91z"/>
   <path class="fil3" d="M4669 4698l72 91c-109,0 -78,25 -72,-91z"/>
   <path class="fil3" d="M12814 2589l72 91c-109,0 -78,25 -72,-91z"/>
   <path class="fil3" d="M12878 5080l72 -91c6,115 37,91 -72,91z"/>
   <path class="fil3" d="M3933 16062l78 -91c0,115 31,91 -78,91z"/>
   <path class="fil3" d="M4015 18371l72 91c-109,0 -78,25 -72,-91z"/>
   <path class="fil3" d="M4733 2971l78 -91c0,115 31,91 -78,91z"/>
   <path class="fil3" d="M12078 18171l78 -91c0,115 31,91 -78,91z"/>
   <path class="fil3" d="M11482 5377c0,-109 -25,-76 91,-76l-91 76z"/>
   <path class="fil3" d="M9029 2826c0,-115 -31,-91 76,-91l-76 91z"/>
   <path class="fil3" d="M9301 2540c0,-109 -25,-76 91,-76l-91 76z"/>
   <path class="fil3" d="M12810 18752c0,-115 -31,-91 76,-91l-76 91z"/>
   <path class="fil3" d="M8064 19340c0,-109 -25,-76 91,-76l-91 76z"/>
   <path class="fil3" d="M4574 15194c0,-109 -25,-76 91,-76l-91 76z"/>
   <path class="fil4" d="M4588 3261l72 -87c6,113 35,87 -72,87z"/>
   <path class="fil5" d="M3933 2536l72 -87c6,113 35,87 -72,87z"/>
   <path class="fil4" d="M11633 19694l87 -72c0,107 25,78 -87,72z"/>
   <path class="fil5" d="M9033 18012l72 87c-107,0 -78,25 -72,-87z"/>
   <path class="fil4" d="M9524 2385l87 -72c0,107 25,78 -87,72z"/>
   <path class="fil5" d="M7122 2321c113,-6 87,-35 87,72l-87 -72z"/>
   <path class="fil5" d="M12888 15685l72 87c-107,0 -78,25 -72,-87z"/>
   <path class="fil5" d="M5378 14676l87 -72c0,107 25,78 -87,72z"/>
   <path class="fil4" d="M11777 14685c113,-6 87,-35 87,72l-87 -72z"/>
   <path class="fil4" d="M11777 19622l87 -72c0,107 25,78 -87,72z"/>
   <path class="fil4" d="M4805 16427l72 -87c6,113 35,87 -72,87z"/>
   <path class="fil4" d="M13024 18389l72 -87c6,113 35,87 -72,87z"/>
   <path class="fil5" d="M12006 3043c107,0 78,-25 72,87l-72 -87z"/>
   <path class="fil4" d="M11924 19548l87 -72c0,107 25,78 -87,72z"/>
   <path class="fil5" d="M11268 5513l87 -72c0,107 25,78 -87,72z"/>
   <path class="fil5" d="M4578 1812c0,-107 -25,-76 87,-76l-87 76z"/>
   <path class="fil2" d="M7928 12062c109,0 82,-27 82,82l-82 -82z"/>
   <path class="fil3" d="M7943 3243l68 91c-105,0 -74,23 -68,-91z"/>
   <path class="fil3" d="M12738 5370l68 -91c6,113 37,91 -68,91z"/>
   <path class="fil3" d="M12233 16408l68 91c-105,0 -74,23 -68,-91z"/>
   <path class="fil2" d="M8011 9444l91 68c-113,6 -91,37 -91,-68z"/>
   <path class="fil5" d="M8600 18963l72 82c-109,0 -85,27 -72,-82z"/>
   <path class="fil4" d="M8083 3408l87 68c-111,6 -87,35 -87,-68z"/>
   <path class="fil5" d="M9524 19630c111,-6 87,-35 87,68l-87 -68z"/>
   <path class="fil5" d="M7413 18676l87 -68c0,103 23,74 -87,68z"/>
   <path class="fil5" d="M4743 4847l68 87c-103,0 -74,23 -68,-87z"/>
   <path class="fil4" d="M11282 15480l87 68c-111,6 -87,35 -87,-68z"/>
   <path class="fil4" d="M5669 18758c111,-6 87,-35 87,68l-87 -68z"/>
   <path class="fil5" d="M6778 5937l68 87c-103,0 -74,23 -68,-87z"/>
   <path class="fil5" d="M7283 1371l87 68c-111,6 -87,35 -87,-68z"/>
   <path class="fil3" d="M6702 5799l78 82c-105,0 -78,25 -78,-82z"/>
   <path class="fil3" d="M4951 2680l78 -82c0,107 27,82 -78,82z"/>
   <path class="fil4" d="M8151 17736l78 -82c0,107 27,82 -78,82z"/>
   <path class="fil2" d="M7134 10757c103,-4 76,-29 76,76l-76 -76z"/>
   <path class="fil2" d="M7058 10681c105,0 80,-27 76,76l-76 -76z"/>
   <path class="fil4" d="M4296 2027l78 -78c0,103 27,78 -78,78z"/>
   <path class="fil3" d="M5102 15990l66 -82c10,105 35,82 -66,82z"/>
   <path class="fil3" d="M8584 1944l82 -64c0,101 23,76 -82,64z"/>
   <path class="fil3" d="M4374 15408l66 -82c10,105 35,82 -66,82z"/>
   <path class="fil5" d="M8373 19045c0,-101 -23,-76 82,-64l-82 64z"/>
   <path class="fil4" d="M5166 15907l80 -64c0,101 23,76 -80,64z"/>
   <polygon class="fil3" points="11229,1291 11338,1379 "/>
   <polygon class="fil3" points="7064,1295 7192,1379 "/>
   <polygon class="fil3" points="5374,1367 5502,1307 "/>
   <polygon class="fil5" points="7429,1439 7501,1517 "/>
   <polygon class="fil3" points="7574,1517 7646,1590 "/>
   <polygon class="fil3" points="7720,1590 7792,1672 "/>
   <polygon class="fil3" points="4665,1734 4737,1653 "/>
   <polygon class="fil3" points="12082,1726 12156,1816 "/>
   <polygon class="fil3" points="8738,1808 8811,1730 "/>
   <polygon class="fil3" points="8664,1880 8738,1808 "/>
   <polygon class="fil2" points="7928,9372 8011,9444 "/>
   <polygon class="fil2" points="7870,9201 7928,9327 "/>
   <polygon class="fil2" points="8011,8939 8083,8863 "/>
   <polygon class="fil2" points="7870,11893 7928,12019 "/>
   <polygon class="fil3" points="5409,6453 5520,6544 "/>
   <polygon class="fil5" points="11185,6531 11311,6471 "/>
   <polygon class="fil5" points="11404,6457 11530,6393 "/>
   <polygon class="fil5" points="4811,6170 4883,6253 "/>
   <polygon class="fil3" points="10192,6117 10274,5952 "/>
   <polygon class="fil3" points="12156,6026 12229,5954 "/>
   <polygon class="fil5" points="12229,5954 12301,5880 "/>
   <polygon class="fil5" points="12301,5880 12375,5799 "/>
   <polygon class="fil3" points="6102,5663 6539,5748 "/>
   <polygon class="fil2" points="11142,14444 11266,14545 "/>
   <polygon class="fil3" points="5811,14530 5910,14472 "/>
   <polygon class="fil4" points="11400,14545 11550,14625 "/>
   <polygon class="fil3" points="10538,5731 10664,5671 "/>
   <polygon class="fil3" points="12437,5735 12519,5661 "/>
   <polygon class="fil3" points="5755,5585 5883,5671 "/>
   <polygon class="fil3" points="10882,5653 11029,5599 "/>
   <polygon class="fil3" points="4073,5517 4166,5589 "/>
   <polygon class="fil3" points="12156,14895 12229,14980 "/>
   <polygon class="fil3" points="10202,14934 10260,15062 "/>
   <polygon class="fil4" points="4737,15043 4811,14967 "/>
   <polygon class="fil3" points="5537,5517 5611,5589 "/>
   <polygon class="fil3" points="4665,15118 4737,15043 "/>
   <polygon class="fil5" points="10260,15118 10346,15190 "/>
   <polygon class="fil3" points="5392,5445 5465,5517 "/>
   <polygon class="fil3" points="12659,5445 12738,5370 "/>
   <polygon class="fil3" points="10410,15254 10482,15334 "/>
   <polygon class="fil4" points="5174,5290 5246,5381 "/>
   <polygon class="fil3" points="10629,15330 10866,15408 "/>
   <polygon class="fil3" points="6229,15398 6446,15344 "/>
   <polygon class="fil3" points="11064,15404 11192,15489 "/>
   <polygon class="fil3" points="5883,15476 6011,15417 "/>
   <polygon class="fil3" points="4296,15480 4374,15408 "/>
   <polygon class="fil3" points="12730,15480 12820,15553 "/>
   <polygon class="fil4" points="11573,5298 11647,5226 "/>
   <polygon class="fil4" points="11647,5226 11719,5148 "/>
   <polygon class="fil4" points="11429,15549 11501,15627 "/>
   <polygon class="fil3" points="11787,5080 11866,5008 "/>
   <polygon class="fil3" points="11573,15627 11647,15707 "/>
   <polygon class="fil3" points="3805,4989 3714,4861 "/>
   <polygon class="fil5" points="5320,15771 5392,15695 "/>
   <polygon class="fil4" points="4811,4935 4891,5008 "/>
   <polygon class="fil3" points="5246,15843 5320,15771 "/>
   <polygon class="fil3" points="12942,4917 13033,4789 "/>
   <polygon class="fil3" points="5019,16062 5102,15990 "/>
   <polygon class="fil3" points="3650,4626 3710,4752 "/>
   <polygon class="fil5" points="13037,4674 13097,4546 "/>
   <polygon class="fil3" points="12074,16134 12161,16208 "/>
   <polygon class="fil4" points="12093,4599 12150,4474 "/>
   <polygon class="fil3" points="3852,16262 3941,16134 "/>
   <polygon class="fil3" points="3642,4517 3574,4336 "/>
   <polygon class="fil3" points="4524,4336 4588,4445 "/>
   <polygon class="fil3" points="13078,4461 13175,4117 "/>
   <polygon class="fil3" points="12165,4389 12220,4245 "/>
   <polygon class="fil3" points="4747,16608 4805,16480 "/>
   <polygon class="fil3" points="4518,4080 4518,3752 "/>
   <polygon class="fil3" points="12307,16625 12369,16736 "/>
   <polygon class="fil3" points="4673,16827 4733,16699 "/>
   <polygon class="fil5" points="13327,16837 13239,16571 "/>
   <polygon class="fil3" points="3720,16952 3797,16643 "/>
   <polygon class="fil3" points="12375,17317 12375,16990 "/>
   <polygon class="fil3" points="4673,17480 4729,17627 "/>
   <polygon class="fil4" points="12311,17691 12369,17565 "/>
   <polygon class="fil4" points="8738,17589 8811,17672 "/>
   <polygon class="fil3" points="13255,17771 13319,17571 "/>
   <polygon class="fil3" points="13175,3717 13097,3408 "/>
   <polygon class="fil3" points="3815,17699 3720,17352 "/>
   <polygon class="fil3" points="8874,17736 8961,17808 "/>
   <polygon class="fil4" points="8277,3484 8423,3490 "/>
   <polygon class="fil3" points="4823,17864 4743,17717 "/>
   <polygon class="fil3" points="12165,3445 12220,3589 "/>
   <polygon class="fil3" points="3865,17952 3784,17808 "/>
   <polygon class="fil3" points="13160,18008 13251,17880 "/>
   <polygon class="fil3" points="4510,3464 4597,3334 "/>
   <polygon class="fil4" points="3589,3451 3642,3311 "/>
   <polygon class="fil5" points="8011,3336 8083,3408 "/>
   <polygon class="fil4" points="10291,1216 10676,1216 "/>
   <polygon class="fil3" points="13088,18227 13179,18099 "/>
   <polygon class="fil3" points="12156,3336 12066,3204 "/>
   <polygon class="fil5" points="4951,18171 5028,18245 "/>
   <polygon class="fil4" points="5028,18245 5110,18317 "/>
   <polygon class="fil3" points="3937,18245 4015,18317 "/>
   <polygon class="fil3" points="13113,3247 13033,3092 "/>
   <polygon class="fil5" points="9237,18317 9320,18389 "/>
   <polygon class="fil3" points="3638,3171 3725,3043 "/>
   <polygon class="fil3" points="9320,18389 9392,18472 "/>
   <polygon class="fil3" points="7864,3117 7943,3189 "/>
   <polygon class="fil3" points="7788,2971 7864,3043 "/>
   <polygon class="fil4" points="7501,18608 7574,18530 "/>
   <polygon class="fil3" points="5320,18525 5392,18616 "/>
   <polygon class="fil3" points="3706,2954 3801,2824 "/>
   <polygon class="fil3" points="12960,2880 13020,3008 "/>
   <polygon class="fil3" points="8951,2899 9029,2826 "/>
   <polygon class="fil3" points="11855,2826 11946,2899 "/>
   <polygon class="fil3" points="7565,2680 7656,2752 "/>
   <polygon class="fil3" points="5537,18680 5611,18758 "/>
   <polygon class="fil3" points="12734,18826 12810,18752 "/>
   <polygon class="fil3" points="7429,2525 7501,2616 "/>
   <polygon class="fil4" points="7114,18822 7240,18758 "/>
   <polygon class="fil3" points="12738,2462 12814,2536 "/>
   <polygon class="fil5" points="9392,2462 9464,2385 "/>
   <polygon class="fil3" points="10045,18822 10175,18913 "/>
   <polygon class="fil2" points="7058,10638 7081,10417 "/>
   <polygon class="fil3" points="5846,18816 5955,18907 "/>
   <polygon class="fil3" points="4292,18826 4382,18899 "/>
   <polygon class="fil3" points="11429,2385 11501,2472 "/>
   <polygon class="fil3" points="8456,18981 8600,18963 "/>
   <polygon class="fil3" points="4005,2389 4083,2317 "/>
   <polygon class="fil3" points="6992,2243 7064,2321 "/>
   <polygon class="fil3" points="10992,1221 11119,1307 "/>
   <polygon class="fil4" points="12591,2243 12674,2317 "/>
   <polygon class="fil3" points="5665,2239 5792,2181 "/>
   <polygon class="fil3" points="8301,19117 8373,19045 "/>
   <polygon class="fil4" points="8738,19107 8811,19200 "/>
   <polygon class="fil3" points="8229,19189 8301,19117 "/>
   <polygon class="fil3" points="8155,19261 8229,19189 "/>
   <polygon class="fil5" points="12229,19336 12301,19257 "/>
   <polygon class="fil3" points="6774,2167 6901,2253 "/>
   <polygon class="fil4" points="4737,19253 4811,19344 "/>
   <polygon class="fil3" points="12156,19416 12229,19336 "/>
   <polygon class="fil4" points="9101,19400 9173,19480 "/>
   <polygon class="fil5" points="9804,2239 9930,2181 "/>
   <polygon class="fil3" points="12511,2171 12591,2243 "/>
   <polygon class="fil3" points="5939,2163 6155,2107 "/>
   <polygon class="fil3" points="9248,19480 9320,19554 "/>
   <polygon class="fil3" points="6337,2095 6683,2185 "/>
   <polygon class="fil5" points="8301,2099 8437,2090 "/>
   <polygon class="fil5" points="9392,19554 9464,19630 "/>
   <polygon class="fil5" points="8219,2027 8301,2099 "/>
   <polygon class="fil3" points="6827,1231 6955,1289 "/>
   <polygon class="fil5" points="7405,19694 7530,19635 "/>
   <polygon class="fil3" points="8083,1872 8155,1963 "/>
   <polygon class="fil3" points="11392,19762 11538,19707 "/>
   <polygon class="fil4" points="5586,1295 5712,1235 "/>
   <polygon class="fil5" points="7186,19767 7312,19707 "/>
   <polygon class="fil3" points="5537,19694 5665,19781 "/>
   <polygon class="fil3" points="9973,19767 10120,19849 "/>
   <polygon class="fil3" points="6955,19835 7101,19781 "/>
   <polygon class="fil5" points="5799,19781 5949,19835 "/>
   <polygon class="fil3" points="6289,19853 6555,19861 "/>
   <path class="fil7" d="M16779 11975l930 205c-103,1013 -362,1805 -782,2378 -420,574 -936,860 -1547,860 -766,0 -1381,-398 -1846,-1191 -466,-793 -698,-1930 -698,-3410 0,-959 100,-1796 301,-2516 199,-716 504,-1256 915,-1614 409,-360 854,-540 1336,-540 607,0 1106,243 1491,731 387,488 636,1183 743,2079l-919 222c-88,-597 -243,-1045 -469,-1348 -223,-299 -494,-452 -811,-452 -479,0 -867,272 -1169,814 -298,546 -449,1403 -449,2579 0,1193 144,2060 432,2598 290,540 667,810 1129,810 375,0 687,-180 935,-542 251,-360 409,-917 475,-1668l3 6zm1740 3255l0 -8893 854 0 0 1256c174,-433 409,-785 701,-1049 292,-266 623,-398 996,-398 415,0 755,136 1019,408 265,274 452,653 560,1145 446,-1036 1025,-1553 1738,-1553 559,0 989,243 1287,731 301,488 452,1239 452,2252l0 6096 -951 0 0 -5598c0,-599 -33,-1034 -94,-1300 -61,-266 -173,-477 -337,-641 -162,-163 -353,-243 -570,-243 -396,0 -724,209 -985,622 -261,417 -391,1082 -391,1997l0 5160 -951 0 0 -5771c0,-668 -78,-1170 -232,-1505 -154,-335 -409,-502 -761,-502 -267,0 -514,111 -741,335 -227,222 -391,548 -494,980 -100,429 -152,1049 -152,1857l0 4610 -951 0 1 4z"/>
  </g>
 </g>
</svg>
