<?xml version="1.0" encoding="UTF-8"?>
<!DOCTYPE svg PUBLIC "-//W3C//DTD SVG 1.1//EN" "http://www.w3.org/Graphics/SVG/1.1/DTD/svg11.dtd">
<!-- Creator: CorelDRAW 2017 -->
<svg xmlns="http://www.w3.org/2000/svg" xml:space="preserve" width="23.35cm" height="19.8cm" version="1.1" style="shape-rendering:geometricPrecision; text-rendering:geometricPrecision; image-rendering:optimizeQuality; fill-rule:evenodd; clip-rule:evenodd"
viewBox="0 0 23350 19800"
 xmlns:xlink="http://www.w3.org/1999/xlink">
 <defs>
  <style type="text/css">
   <![CDATA[
    .fil1 {fill:#2B2B2B}
    .fil2 {fill:#999999}
    .fil3 {fill:#DCCBCC}
    .fil0 {fill:white}
   ]]>
  </style>
 </defs>
 <g id="Layer_x0020_1">
  <metadata id="CorelCorpID_0Corel-Layer"/>
  <g id="_1346008110000">
   <path class="fil0" d="M6047 2614c-761,-307 -1091,803 -465,1087 619,280 1064,-346 822,-822 -146,-284 -200,-200 -357,-265zm4503 5114l0 811 4011 2317c1268,761 3001,1618 3673,2670 1037,1625 227,3654 -1026,4415 -861,523 -1506,530 -2624,526 -987,0 -2175,61 -3135,-19 242,-542 822,-715 1475,-953 -223,-864 -1610,-2413 234,-4603 -192,-238 -342,-434 -642,-565 -715,953 -1022,1349 -1141,2974l-711 -81c-234,-150 -519,-92 -841,-92 0,-334 58,-515 -96,-745l-807 12 -12 4073 -2962 -4c572,-1034 1345,-553 1902,-930 111,-104 -146,-1894 -211,-2278 -61,-357 -108,-380 -369,-557 -1975,-1356 -2086,-3562 -622,-4991 911,-888 657,-277 657,-3089 430,-238 603,-599 815,-1168 -857,-69 -745,-131 -991,169 -154,184 -234,499 -937,576 -1060,115 -2701,173 -3504,-538 -469,-415 -492,-657 -864,-1160 876,-1064 280,-488 1568,-941 707,-246 1076,-699 1491,-1118 1802,-1802 1468,-734 4026,-1141 104,1333 -35,2782 27,4130 61,1425 742,1721 1621,2305l-4 -4z"/>
   <path class="fil1" d="M8901 1296c-2559,407 -2225,-661 -4026,1141 -419,419 -788,872 -1491,1118 -1291,453 -695,-123 -1568,941 373,503 396,745 864,1160 803,715 2444,653 3504,538 707,-77 788,-392 937,-576 246,-300 134,-238 991,-169 -211,569 -388,934 -815,1168 0,2812 250,2202 -657,3089 -1464,1429 -1352,3635 622,4991 257,177 307,200 369,557 65,384 323,2171 211,2278 -557,377 -1329,-104 -1902,930l2962 4 12 -4073 807 -12 27 826 911 12 711 81c119,-1625 426,-2017 1141,-2974 300,131 450,327 642,565 -1844,2190 -453,3738 -234,4603 -653,234 -1233,411 -1475,953 961,77 2148,15 3135,19 1118,4 1764,-8 2624,-526 1253,-761 2063,-2789 1026,-4415 -672,-1053 -2409,-1913 -3673,-2670l-4011 -2317 0 -811c296,54 688,58 845,288l2674 1560c891,519 1779,1053 2682,1614 930,576 1725,1064 2259,2029 657,1183 661,2167 242,3542l-469 903 -815 815c-277,150 -534,338 -861,484 -277,123 -692,223 -968,342 -1433,46 -3120,54 -4549,12 -661,-19 -1229,-369 -976,-1145 215,-657 753,-749 1164,-1172 -365,-972 -795,-1068 -2032,-922 0,3404 507,3231 -2912,3239 -419,0 -1010,58 -1345,-127 -327,-181 -549,-599 -346,-1072 400,-918 1510,-1122 1798,-1302 -46,-1533 -115,-1229 -907,-2002 -488,-476 -891,-1072 -1087,-1898 -465,-1940 538,-3515 1514,-4192l0 -1656c-3308,0 -4003,184 -5486,-2317 -292,-492 -742,-1418 96,-1721 665,-242 1429,81 2255,-357 499,-269 995,-888 1372,-1245 1141,-1091 2205,-1037 4230,-914l-27 791 4 -8z"/>
   <path class="fil1" d="M9739 1373c0,918 -115,3750 61,4453 373,1491 3312,2105 3208,-1060 -27,-876 -380,-1018 -807,-1441 -807,-807 -1602,-1867 -2463,-1948l0 -4zm1656 6643c-158,-227 -549,-234 -845,-288 -880,-580 -1556,-880 -1621,-2305 -58,-1349 77,-2797 -27,-4130l27 -791c1441,35 1909,269 2655,1010 607,607 1326,1233 1821,1917 745,1026 592,3074 -730,4003 -826,584 -1107,204 -1279,580l0 4z"/>
   <path class="fil2" d="M9739 1373c861,81 1652,1141 2463,1948 426,426 780,565 807,1441 104,3166 -2839,2551 -3208,1060 -177,-703 -61,-3535 -61,-4453l0 4z"/>
   <path class="fil1" d="M16140 19304c277,-119 692,-219 968,-342 327,-142 580,-334 861,-484 961,-12 3369,188 3977,-177 96,-849 -534,-645 -1295,-642 -622,4 -1245,-4 -1867,4l469 -903c415,246 2267,-104 2897,231 791,423 788,1529 169,2040 -645,534 -4972,227 -6174,273l-4 0z"/>
   <path class="fil2" d="M17965 18478l815 -815c622,-8 1245,0 1867,-4 761,-4 1391,-207 1295,642 -611,361 -3016,165 -3977,177z"/>
   <path class="fil1" d="M6047 2614c158,65 211,-19 357,265 246,476 -204,1103 -822,822 -626,-284 -296,-1395 465,-1087z"/>
   <path class="fil3" d="M10661 15224l-911 -12 -27 -826c154,234 96,411 96,745 323,0 603,-58 841,92z"/>
  </g>
 </g>
</svg>
