<?xml version="1.0" encoding="UTF-8"?>
<!DOCTYPE svg PUBLIC "-//W3C//DTD SVG 1.1//EN" "http://www.w3.org/Graphics/SVG/1.1/DTD/svg11.dtd">
<!-- Creator: CorelDRAW 2017 -->
<svg xmlns="http://www.w3.org/2000/svg" xml:space="preserve" width="29.7cm" height="21cm" version="1.1" style="shape-rendering:geometricPrecision; text-rendering:geometricPrecision; image-rendering:optimizeQuality; fill-rule:evenodd; clip-rule:evenodd"
viewBox="0 0 29700 21000"
 xmlns:xlink="http://www.w3.org/1999/xlink">
 <defs>
  <style type="text/css">
   <![CDATA[
    .fil1 {fill:#2B2B2B}
    .fil2 {fill:#999999}
    .fil3 {fill:#DCCBCC}
    .fil0 {fill:white}
   ]]>
  </style>
 </defs>
 <g id="Layer_x0020_1">
  <metadata id="CorelCorpID_0Corel-Layer"/>
  <g id="_1346008110000">
   <path class="fil0" d="M3234 1928c-198,-80 -284,209 -121,283 161,73 277,-90 214,-214 -38,-74 -52,-52 -93,-69zm1172 1331l0 211 1044 603c330,198 781,421 956,695 270,423 59,951 -267,1149 -224,136 -392,138 -683,137 -257,0 -566,16 -816,-5 63,-141 214,-186 384,-248 -58,-225 -419,-628 61,-1198 -50,-62 -89,-113 -167,-147 -186,248 -266,351 -297,774l-185 -21c-61,-39 -135,-24 -219,-24 0,-87 15,-134 -25,-194l-210 3 -3 1060 -771 -1c149,-269 350,-144 495,-242 29,-27 -38,-493 -55,-593 -16,-93 -28,-99 -96,-145 -514,-353 -543,-927 -162,-1299 237,-231 171,-72 171,-804 112,-62 157,-156 212,-304 -223,-18 -194,-34 -258,44 -40,48 -61,130 -244,150 -276,30 -703,45 -912,-140 -122,-108 -128,-171 -225,-302 228,-277 73,-127 408,-245 184,-64 280,-182 388,-291 469,-469 382,-191 1048,-297 27,347 -9,724 7,1075 16,371 193,448 422,600z"/>
   <path class="fil1" d="M3977 1585c-666,106 -579,-172 -1048,297 -109,109 -205,227 -388,291 -336,118 -181,-32 -408,245 97,131 103,194 225,302 209,186 636,170 912,140 184,-20 205,-102 244,-150 64,-78 35,-62 258,-44 -55,148 -101,243 -212,304 0,732 65,573 -171,804 -381,372 -352,946 162,1299 67,46 80,52 96,145 17,100 84,565 55,593 -145,98 -346,-27 -495,242l771 1 3 -1060 210 -3 7 215 237 3 185 21c31,-423 111,-525 297,-774 78,34 117,85 167,147 -480,570 -118,973 -61,1198 -170,61 -321,107 -384,248 250,20 559,4 816,5 291,1 459,-2 683,-137 326,-198 537,-726 267,-1149 -175,-274 -627,-498 -956,-695l-1044 -603 0 -211c77,14 179,15 220,75l696 406c232,135 463,274 698,420 242,150 449,277 588,528 171,308 172,564 63,922l-122 235 -212 212c-72,39 -139,88 -224,126 -72,32 -180,58 -252,89 -373,12 -812,14 -1184,3 -172,-5 -320,-96 -254,-298 56,-171 196,-195 303,-305 -95,-253 -207,-278 -529,-240 0,886 132,841 -758,843 -109,0 -263,15 -350,-33 -85,-47 -143,-156 -90,-279 104,-239 393,-292 468,-339 -12,-399 -30,-320 -236,-521 -127,-124 -232,-279 -283,-494 -121,-505 140,-915 394,-1091l0 -431c-861,0 -1042,48 -1428,-603 -76,-128 -193,-369 25,-448 173,-63 372,21 587,-93 130,-70 259,-231 357,-324 297,-284 574,-270 1101,-238l-7 206z"/>
   <path class="fil1" d="M4195 1605c0,239 -30,976 16,1159 97,388 862,548 835,-276 -7,-228 -99,-265 -210,-375 -210,-210 -417,-486 -641,-507zm431 1729c-41,-59 -143,-61 -220,-75 -229,-151 -405,-229 -422,-600 -15,-351 20,-728 -7,-1075l7 -206c375,9 497,70 691,263 158,158 345,321 474,499 194,267 154,800 -190,1042 -215,152 -288,53 -333,151z"/>
   <path class="fil2" d="M4195 1605c224,21 430,297 641,507 111,111 203,147 210,375 27,824 -739,664 -835,276 -46,-183 -16,-920 -16,-1159z"/>
   <path class="fil1" d="M5861 6272c72,-31 180,-57 252,-89 85,-37 151,-87 224,-126 250,-3 877,49 1035,-46 25,-221 -139,-168 -337,-167 -162,1 -324,-1 -486,1l122 -235c108,64 590,-27 754,60 206,110 205,398 44,531 -168,139 -1294,59 -1607,71z"/>
   <path class="fil2" d="M6336 6057l212 -212c162,-2 324,0 486,-1 198,-1 362,-54 337,167 -159,94 -785,43 -1035,46z"/>
   <path class="fil1" d="M3234 1928c41,17 55,-5 93,69 64,124 -53,287 -214,214 -163,-74 -77,-363 121,-283z"/>
   <path class="fil3" d="M4435 5210l-237 -3 -7 -215c40,61 25,107 25,194 84,0 157,-15 219,24z"/>
  </g>
 </g>
</svg>
