<?xml version="1.0" encoding="UTF-8"?>
<!DOCTYPE svg PUBLIC "-//W3C//DTD SVG 1.1//EN" "http://www.w3.org/Graphics/SVG/1.1/DTD/svg11.dtd">
<!-- Creator: CorelDRAW 2017 -->
<svg xmlns="http://www.w3.org/2000/svg" xml:space="preserve" width="11.5429cm" height="8.16162cm" version="1.1" style="shape-rendering:geometricPrecision; text-rendering:geometricPrecision; image-rendering:optimizeQuality; fill-rule:evenodd; clip-rule:evenodd"
viewBox="0 0 11543 8162"
 xmlns:xlink="http://www.w3.org/1999/xlink">
 <defs>
  <style type="text/css">
   <![CDATA[
    .fil1 {fill:#006633}
    .fil0 {fill:#2B2C2B}
    .fil2 {fill:#C7585C}
   ]]>
  </style>
 </defs>
 <g id="Layer_x0020_1">
  <metadata id="CorelCorpID_0Corel-Layer"/>
  <g id="_1345896447296">
   <path class="fil0" d="M2137 1250c-17,13 -20,9 -49,9 -17,0 -36,-1 -53,-1 31,-74 60,-131 64,-224 9,-224 -172,-428 -425,-412 -275,18 -267,234 -374,122 -29,-30 -38,-41 -76,-64 -224,-138 -550,-31 -605,266 -32,170 44,297 131,414 88,118 482,467 607,516 49,-26 132,-90 180,-124 60,-44 111,-83 164,-131 23,-21 88,-35 86,25 -2,53 -396,321 -420,327 -45,11 -306,-195 -350,-231 -59,-47 -104,-85 -158,-137 -94,-89 -200,-189 -271,-328 -74,-146 -93,-317 -16,-473 41,-82 78,-118 131,-165 51,-44 118,-77 199,-97 184,-43 353,30 446,121 27,-7 90,-61 137,-85 376,-190 864,185 652,669z"/>
   <path class="fil1" d="M2035 1258c17,0 36,1 53,1 29,0 32,4 49,-9 2,1 5,0 6,3 1,2 4,2 6,2 2,0 4,2 6,2 49,10 198,-12 231,11 30,20 24,69 -18,78 -31,7 -649,8 -674,-6 -33,-23 -65,-135 -89,-178 -19,38 -37,149 -49,198 -20,82 -25,173 -75,174 -44,1 -121,-153 -159,-215 -18,-28 -33,-67 -55,-71 -54,0 -177,18 -200,-21 -50,-83 96,-68 141,-68 104,0 115,-14 159,64 28,48 60,93 85,142 9,17 -5,6 11,4 12,-2 4,1 6,-9 -1,-23 68,-357 99,-379 59,-41 87,70 104,107 24,53 55,120 72,171l290 -1z"/>
   <path class="fil2" d="M1453 1365l17 -5c-2,10 6,8 -6,9 -16,2 -2,12 -11,-4z"/>
  </g>
 </g>
</svg>
