<?xml version="1.0" encoding="UTF-8"?>
<!DOCTYPE svg PUBLIC "-//W3C//DTD SVG 1.1//EN" "http://www.w3.org/Graphics/SVG/1.1/DTD/svg11.dtd">
<!-- Creator: CorelDRAW 2017 -->
<svg xmlns="http://www.w3.org/2000/svg" xml:space="preserve" width="29.7cm" height="21cm" version="1.1" style="shape-rendering:geometricPrecision; text-rendering:geometricPrecision; image-rendering:optimizeQuality; fill-rule:evenodd; clip-rule:evenodd"
viewBox="0 0 29700 21000"
 xmlns:xlink="http://www.w3.org/1999/xlink">
 <defs>
  <style type="text/css">
   <![CDATA[
    .fil2 {fill:#C7585C}
    .fil0 {fill:#D9D134}
    .fil1 {fill:#EB0C0C}
   ]]>
  </style>
 </defs>
 <g id="Layer_x0020_1">
  <metadata id="CorelCorpID_0Corel-Layer"/>
  <path class="fil0" d="M22723 10494c-199,152 -234,105 -573,105 -199,0 -421,-12 -620,-12 362,-865 702,-1532 748,-2619 105,-2619 -2011,-5004 -4969,-4817 -3215,210 -3122,2736 -4373,1426 -339,-351 -444,-479 -889,-748 -2619,-1614 -6431,-362 -7074,3110 -374,1988 514,3473 1532,4841 1029,1380 5636,5460 7097,6033 573,-304 1543,-1052 2105,-1450 702,-514 1298,-971 1918,-1532 269,-246 1029,-409 1006,292 -23,620 -4630,3753 -4911,3823 -526,129 -3578,-2280 -4092,-2701 -690,-550 -1216,-994 -1847,-1602 -1099,-1041 -2338,-2210 -3169,-3835 -865,-1707 -1087,-3707 -187,-5531 479,-959 912,-1380 1532,-1929 596,-514 1380,-900 2327,-1134 2151,-503 4127,351 5215,1415 316,-82 1052,-713 1602,-994 4396,-2222 10102,2163 7623,7822l0 35 -1 2z"/>
  <path class="fil1" d="M21530 10587c199,0 421,12 620,12 339,0 374,47 573,-105 23,12 58,0 70,35 12,23 47,23 70,23 23,0 47,23 70,23 573,117 2315,-140 2701,129 351,234 281,807 -210,912 -362,82 -7588,94 -7881,-70 -386,-269 -760,-1578 -1041,-2081 -222,444 -433,1742 -573,2315 -234,959 -292,2023 -877,2034 -514,12 -1415,-1789 -1859,-2514 -210,-327 -386,-783 -643,-830 -631,0 -2070,210 -2338,-246 -585,-971 1123,-795 1649,-795 1216,0 1345,-164 1859,748 327,561 702,1087 994,1660 105,199 -58,70 129,47 140,-23 47,12 70,-105 -12,-269 795,-4174 1158,-4431 690,-479 1017,819 1216,1251 281,620 643,1403 842,1999l3391 -12 12 0 -2 1z"/>
  <path class="fil2" d="M14725 11838l199 -58c-23,117 70,94 -70,105 -187,23 -23,140 -129,-47z"/>
 </g>
</svg>
