<?xml version="1.0" encoding="UTF-8"?>
<!DOCTYPE svg PUBLIC "-//W3C//DTD SVG 1.1//EN" "http://www.w3.org/Graphics/SVG/1.1/DTD/svg11.dtd">
<!-- Creator: CorelDRAW 2017 -->
<svg xmlns="http://www.w3.org/2000/svg" xml:space="preserve" width="29.7cm" height="21cm" version="1.1" style="shape-rendering:geometricPrecision; text-rendering:geometricPrecision; image-rendering:optimizeQuality; fill-rule:evenodd; clip-rule:evenodd"
viewBox="0 0 29700 21000"
 xmlns:xlink="http://www.w3.org/1999/xlink">
 <defs>
  <style type="text/css">
   <![CDATA[
    .fil3 {fill:#006633}
    .fil1 {fill:#2B2C2B}
    .fil2 {fill:#E01414}
    .fil0 {fill:white}
    .fil4 {fill:#006633;fill-rule:nonzero}
   ]]>
  </style>
 </defs>
 <g id="Layer_x0020_1">
  <metadata id="CorelCorpID_0Corel-Layer"/>
  <path class="fil0" d="M3639 4483c-537,-136 -980,341 -1069,832 -116,644 281,1162 712,1263 548,129 993,-322 1083,-824 120,-667 -279,-1157 -727,-1271zm1994 2403c-1277,48 -2878,-25 -4195,3l-134 -8 0 -1389c0,-482 287,-620 563,-805 159,-107 699,-517 831,-517l1539 0c130,0 1077,669 1190,778 199,191 206,494 206,844 0,365 0,730 0,1094z"/>
  <path class="fil1" d="M5632 6886c0,-365 0,-730 0,-1094 0,-349 -7,-653 -206,-844 -113,-109 -1060,-778 -1190,-778l-1539 0c-132,0 -671,410 -831,517 -275,185 -563,323 -563,805l0 1389 134 8c1317,-29 2918,45 4195,-3zm-1425 -3385l-1478 13 3 389 70 5 1318 1 87 -4 1 -404zm1283 -561l-4049 0 0 299 4052 -3 -3 -296zm-356 -846c0,-216 -38,-252 -221,-252l-2915 0c-82,0 -117,26 -171,50l-24 201c-26,430 -19,585 195,585l2915 0c267,0 221,-92 221,-585zm201 581c176,10 370,-61 385,181 12,188 18,489 -38,624 -327,88 -919,-46 -1251,34l1 428c64,67 232,172 311,224 975,637 1114,635 1114,1734 0,1416 158,1251 -571,1251l-3032 0c-262,0 -1003,60 -1160,-58 -43,-244 -15,-905 -15,-1193 0,-979 81,-1035 773,-1503 175,-118 503,-316 647,-448l6 -438c-299,-51 -1191,61 -1269,-68 -36,-146 -44,-610 16,-724 98,-64 228,-41 340,-41 27,-506 -177,-1093 427,-1099l2847 0c248,-1 405,67 469,292 47,166 26,639 0,803z"/>
  <path class="fil0" d="M2256 2470c47,82 454,94 495,-16 71,-188 -212,-148 -357,-148 -97,0 -205,47 -138,163zm1770 -179c78,0 497,44 371,-165 -55,-91 -402,-51 -511,-51 -343,0 -435,-53 -392,180 106,62 384,36 532,36zm1108 -197c0,493 45,585 -221,585l-2915 0c-215,0 -221,-155 -195,-585l24 -201c54,-24 89,-50 171,-50l2915 0c184,0 221,35 221,252z"/>
  <path class="fil0" d="M2399 5230c-92,-67 -261,27 -44,242 53,52 243,262 286,282 84,38 168,16 160,-90 -7,-86 -341,-389 -403,-434zm479 -391c1105,302 691,1902 -356,1663 -1084,-247 -672,-1944 356,-1663z"/>
  <polygon class="fil0" points="5493,3236 1441,3239 1441,2940 5490,2940 "/>
  <path class="fil2" d="M2878 4839c-1028,-281 -1441,1416 -356,1663 1047,239 1461,-1361 356,-1663zm20 -218c508,114 960,604 824,1271 -102,502 -607,954 -1228,824 -489,-102 -939,-619 -808,-1263 100,-490 602,-968 1212,-832z"/>
  <polygon class="fil0" points="4206,3905 4120,3909 2802,3909 2732,3904 2729,3514 4207,3501 "/>
  <path class="fil3" d="M3495 2254c-43,-233 49,-180 392,-180 109,0 456,-40 511,51 126,209 -293,165 -371,165 -148,0 -426,26 -532,-36z"/>
  <path class="fil3" d="M2399 5230c62,45 396,348 403,434 8,105 -76,128 -160,90 -44,-19 -234,-230 -286,-282 -217,-215 -48,-309 44,-242z"/>
  <path class="fil3" d="M2394 2307c144,0 427,-41 357,148 -41,109 -447,98 -495,16 -67,-116 41,-163 138,-163z"/>
  <path class="fil4" d="M3913 6373l0 -1090 134 0 0 621 317 -321 173 0 -301 294 332 497 -165 0 -262 -404 -93 90 0 313 -134 0zm736 65l129 18c5,40 21,69 45,88 33,25 79,37 136,37 62,0 110,-12 144,-37 34,-25 57,-59 69,-104 7,-27 10,-84 10,-171 -59,69 -131,104 -219,104 -109,0 -193,-39 -252,-118 -60,-78 -89,-172 -89,-281 0,-75 14,-145 41,-209 27,-64 67,-113 119,-147 52,-35 113,-52 183,-52 93,0 170,38 230,114l0 -97 123 0 0 682c0,123 -12,210 -38,261 -25,51 -65,92 -119,122 -54,30 -121,45 -200,45 -94,0 -170,-21 -228,-63 -58,-42 -86,-106 -84,-191zm110 -474c0,103 21,179 62,226 41,47 93,71 155,71 62,0 113,-24 155,-71 42,-47 62,-121 62,-222 0,-96 -22,-169 -64,-218 -43,-49 -95,-73 -155,-73 -60,0 -110,24 -152,72 -42,48 -62,120 -62,215z"/>
 </g>
</svg>
