<?xml version="1.0" encoding="UTF-8"?>
<!DOCTYPE svg PUBLIC "-//W3C//DTD SVG 1.1//EN" "http://www.w3.org/Graphics/SVG/1.1/DTD/svg11.dtd">
<!-- Creator: CorelDRAW 2017 -->
<svg xmlns="http://www.w3.org/2000/svg" xml:space="preserve" width="29.7cm" height="21cm" version="1.1" style="shape-rendering:geometricPrecision; text-rendering:geometricPrecision; image-rendering:optimizeQuality; fill-rule:evenodd; clip-rule:evenodd"
viewBox="0 0 29700 21000"
 xmlns:xlink="http://www.w3.org/1999/xlink">
 <defs>
  <style type="text/css">
   <![CDATA[
    .fil5 {fill:#006633}
    .fil1 {fill:#2B2C2B}
    .fil0 {fill:#CEDED8}
    .fil4 {fill:#E01414}
    .fil2 {fill:#F5F9FA}
    .fil3 {fill:white}
    .fil6 {fill:#28D47E;fill-rule:nonzero}
   ]]>
  </style>
 </defs>
 <g id="Layer_x0020_1">
  <metadata id="CorelCorpID_0Corel-Layer"/>
  <g id="_1947660003120">
   <path class="fil0" d="M10608 10830c-1996,-406 -3641,1018 -3972,2483 -431,1922 1044,3469 2646,3770 2037,385 3690,-961 4025,-2460 446,-1991 -1036,-3454 -2702,-3794l3 0zm7410 7173c-4746,143 -10694,-75 -15588,9l-498 -24 0 -4146c0,-1439 1067,-1851 2092,-2403 590,-319 2597,-1543 3088,-1543l5719 0c483,0 4002,1997 4423,2322 739,570 766,1475 766,2519 0,1089 0,2179 0,3266l-1 1z"/>
   <path class="fil1" d="M18014 18003c0,-1089 0,-2179 0,-3266 0,-1042 -26,-1949 -766,-2519 -420,-326 -3939,-2322 -4422,-2322l-5719 0c-491,0 -2493,1224 -3088,1543 -1022,553 -2092,964 -2092,2403l0 4146 498 24c4894,-86 10843,135 15588,-9l0 -1zm-5296 -10104l-5492 39 11 1161 260 15 4898 3 323 -12 3 -1206 -3 0 0 1zm4768 -1675l-15046 0 0 892 15057 -9 -11 -884zm-1323 -2526c0,-645 -141,-752 -822,-752l-10832 0c-305,0 -435,77 -635,150l-89 600c-96,1284 -70,1746 724,1746l10832 0c993,0 822,-275 822,-1746l0 3zm747 1734c654,30 1375,-182 1431,540 45,561 67,1460 -141,1863 -1215,263 -3415,-137 -4648,101l3 1278c238,200 862,513 1156,669 3623,1902 4140,1895 4140,5176 0,4227 587,3734 -2122,3734l-11267 0c-974,0 -3727,180 -4311,-173 -160,-729 -56,-2702 -56,-3561 0,-2922 301,-3090 2872,-4486 651,-352 1869,-943 2405,-1338l22 -1308c-1111,-152 -4426,182 -4715,-203 -134,-436 -163,-1821 59,-2161 364,-191 847,-122 1263,-122 101,-1510 -657,-3262 1586,-3281l10579 0c921,-3 1505,200 1743,871 174,495 96,1908 0,2397l0 3 1 2z"/>
   <path class="fil2" d="M5469 4822c174,245 1687,281 1839,-48 264,-561 -788,-442 -1327,-442 -360,0 -761,140 -513,487l0 3zm6577 -534c290,0 1847,131 1378,-493 -205,-272 -1494,-152 -1899,-152 -1274,0 -1617,-158 -1457,538 394,185 1427,107 1977,107zm4117 -588c0,1471 168,1746 -822,1746l-10832 0c-799,0 -822,-463 -724,-1746l89 -600c200,-71 331,-150 635,-150l10832 0c684,0 822,105 822,752l0 -3z"/>
   <path class="fil3" d="M9076 12576c-342,-224 -970,91 -163,811 197,174 903,878 1063,946 312,127 624,53 595,-301 -26,-289 -1268,-1303 -1498,-1454l3 0 0 -1zm1780 -1310c4106,1012 2568,6375 -1323,5574 -4028,-828 -2497,-6515 1323,-5574z"/>
   <polygon class="fil0" points="17498,7109 2440,7117 2440,6225 17486,6225 "/>
   <path class="fil4" d="M10855 11266c-3820,-942 -5355,4746 -1323,5574 3890,801 5429,-4562 1323,-5574zm74 -730c1888,382 3567,2024 3062,4259 -379,1683 -2256,3197 -4563,2762 -1817,-342 -3489,-2075 -3003,-4233 371,-1642 2237,-3244 4504,-2788z"/>
   <polygon class="fil3" points="12715,9105 12395,9117 7498,9117 7237,9102 7226,7938 12718,7899 "/>
   <path class="fil5" d="M9076 12576c230,151 1471,1166 1498,1454 30,352 -283,429 -595,301 -163,-63 -870,-771 -1063,-946 -806,-720 -179,-1035 163,-811l-3 0 0 1z"/>
   <path class="fil6" d="M19982 15168l0 -12202 827 0 0 6951 1953 -3594 1066 0 -1855 3291 2045 5565 -1017 0 -1615 -4522 -572 1007 0 3505 -827 0 -5 0zm4536 726l796 201c31,449 129,772 278,987 203,281 487,416 837,416 381,0 678,-135 886,-416 209,-281 351,-660 425,-1165 44,-304 62,-941 62,-1914 -363,772 -807,1165 -1350,1165 -672,0 -1190,-436 -1553,-1320 -371,-875 -549,-1924 -549,-3145 0,-838 85,-1624 253,-2340 167,-716 412,-1264 734,-1647 320,-393 696,-581 1128,-581 572,0 1048,426 1417,1277l0 -1086 757 0 0 7634c0,1376 -74,2350 -234,2921 -154,571 -400,1030 -734,1366 -332,337 -745,505 -1232,505 -579,0 -1048,-234 -1404,-706 -358,-469 -530,-1188 -518,-2139l0 -10 0 -3zm678 -5307c0,1152 129,2003 381,2532 253,525 572,795 955,795 381,0 696,-267 955,-795 258,-525 381,-1353 381,-2485 0,-1076 -136,-1891 -394,-2439 -265,-548 -585,-819 -955,-819 -371,0 -678,267 -937,805 -258,538 -381,1343 -381,2406l-5 0z"/>
  </g>
 </g>
</svg>
