<?xml version="1.0" encoding="UTF-8"?>
<!DOCTYPE svg PUBLIC "-//W3C//DTD SVG 1.1//EN" "http://www.w3.org/Graphics/SVG/1.1/DTD/svg11.dtd">
<!-- Creator: CorelDRAW 2017 -->
<svg xmlns="http://www.w3.org/2000/svg" xml:space="preserve" width="23.35cm" height="19.8cm" version="1.1" style="shape-rendering:geometricPrecision; text-rendering:geometricPrecision; image-rendering:optimizeQuality; fill-rule:evenodd; clip-rule:evenodd"
viewBox="0 0 23350 19800"
 xmlns:xlink="http://www.w3.org/1999/xlink">
 <defs>
  <style type="text/css">
   <![CDATA[
    .fil3 {fill:#006633}
    .fil1 {fill:#2B2C2B}
    .fil2 {fill:#E01414}
    .fil0 {fill:white}
    .fil4 {fill:#006633;fill-rule:nonzero}
   ]]>
  </style>
 </defs>
 <g id="Layer_x0020_1">
  <metadata id="CorelCorpID_0Corel-Layer"/>
  <g id="_1882804962992">
   <path class="fil0" d="M12246 10274c-1822,-461 -3324,1157 -3626,2822 -393,2184 953,3942 2415,4284 1859,438 3368,-1092 3674,-2795 407,-2262 -946,-3925 -2466,-4311l3 0zm6764 8151c-4332,163 -9762,-85 -14229,10l-455 -27 0 -4712c0,-1635 974,-2103 1910,-2731 539,-363 2371,-1754 2819,-1754l5220 0c441,0 3653,2269 4037,2639 675,648 699,1676 699,2863 0,1238 0,2476 0,3711z"/>
   <path class="fil1" d="M19006 18425c0,-1238 0,-2476 0,-3711 0,-1184 -24,-2215 -699,-2863 -383,-370 -3596,-2639 -4036,-2639l-5220 0c-448,0 -2276,1391 -2819,1754 -933,628 -1910,1096 -1910,2731l0 4712 455 27c4467,-98 9898,153 14229,-10zm-4834 -11482l-5013 44 10 1319 237 17 4471 3 295 -14 3 -1370 -3 0zm4352 -1903l-13734 0 0 1014 13744 -10 -10 -1004zm-1208 -2870c0,-733 -129,-855 -750,-855l-9888 0c-278,0 -397,88 -580,170l-81 682c-88,1459 -64,1984 661,1984l9888 0c906,0 750,-312 750,-1984l0 3zm682 1971c597,34 1255,-207 1306,614 41,638 61,1659 -129,2117 -1109,299 -3117,-156 -4243,115l3 1452c217,227 787,583 1055,760 3307,2161 3779,2154 3779,5882 0,4803 536,4243 -1937,4243l-10285 0c-889,0 -3402,204 -3935,-197 -146,-828 -51,-3070 -51,-4047 0,-3321 275,-3511 2622,-5098 594,-400 1706,-1072 2195,-1520l20 -1486c-1014,-173 -4040,207 -4304,-231 -122,-495 -149,-2069 54,-2456 332,-217 773,-139 1153,-139 92,-1716 -600,-3707 1448,-3728l9657 0c841,-3 1374,227 1591,990 159,563 88,2168 0,2724l0 3z"/>
   <path class="fil0" d="M7555 3446c159,278 1540,319 1679,-54 241,-638 -719,-502 -1211,-502 -329,0 -695,159 -468,553l0 3zm6004 -607c265,0 1686,149 1258,-560 -187,-309 -1364,-173 -1733,-173 -1163,0 -1476,-180 -1330,611 360,210 1303,122 1805,122zm3758 -668c0,1672 153,1984 -750,1984l-9888 0c-729,0 -750,-526 -661,-1984l81 -682c183,-81 302,-170 580,-170l9888 0c624,0 750,119 750,855l0 -3z"/>
   <path class="fil0" d="M8040 12808c-312,-227 -885,92 -149,821 180,176 824,889 970,957 285,129 570,54 543,-305 -24,-292 -1157,-1319 -1367,-1472l3 0zm1625 -1326c3748,1024 2344,6452 -1208,5641 -3677,-838 -2279,-6594 1208,-5641z"/>
   <polygon class="fil0" points="18535,6045 4790,6055 4790,5041 18524,5041 "/>
   <path class="fil2" d="M9664 11482c-3487,-953 -4888,4803 -1208,5641 3551,811 4956,-4617 1208,-5641zm68 -739c1723,387 3256,2049 2795,4311 -346,1703 -2059,3236 -4165,2795 -1659,-346 -3185,-2100 -2741,-4284 339,-1662 2042,-3283 4111,-2822z"/>
   <polygon class="fil0" points="14169,8314 13877,8327 9407,8327 9169,8310 9159,6988 14172,6943 "/>
   <path class="fil3" d="M11757 2714c-146,-790 166,-611 1330,-611 370,0 1547,-136 1733,173 427,709 -994,560 -1258,560 -502,0 -1445,88 -1805,-122z"/>
   <path class="fil3" d="M8040 12808c210,153 1343,1180 1367,1472 27,356 -258,434 -543,305 -149,-64 -794,-780 -970,-957 -736,-729 -163,-1048 149,-821l-3 0z"/>
   <path class="fil3" d="M8023 2893c488,0 1448,-139 1211,502 -139,370 -1516,332 -1679,54 -227,-393 139,-553 468,-553l0 -3z"/>
   <path class="fil4" d="M13175 16685l0 -3697 455 0 0 2106 1075 -1089 587 0 -1021 997 1126 1686 -560 0 -889 -1370 -315 305 0 1062 -455 0 -3 0zm2497 220l438 61c17,136 71,234 153,299 112,85 268,126 461,126 210,0 373,-41 488,-126 115,-85 193,-200 234,-353 24,-92 34,-285 34,-580 -200,234 -444,353 -743,353 -370,0 -655,-132 -855,-400 -204,-265 -302,-583 -302,-953 0,-254 47,-492 139,-709 92,-217 227,-383 404,-499 176,-119 383,-176 621,-176 315,0 577,129 780,387l0 -329 417 0 0 2313c0,417 -41,712 -129,885 -85,173 -220,312 -404,414 -183,102 -410,153 -678,153 -319,0 -577,-71 -773,-214 -197,-142 -292,-360 -285,-648l0 -3zm373 -1608c0,349 71,607 210,767 139,159 315,241 526,241 210,0 383,-81 526,-241 142,-159 210,-410 210,-753 0,-326 -75,-573 -217,-739 -146,-166 -322,-248 -526,-248 -204,0 -373,81 -516,244 -142,163 -210,407 -210,729l-3 0z"/>
  </g>
 </g>
</svg>
