<?xml version="1.0" encoding="UTF-8"?>
<!DOCTYPE svg PUBLIC "-//W3C//DTD SVG 1.1//EN" "http://www.w3.org/Graphics/SVG/1.1/DTD/svg11.dtd">
<!-- Creator: CorelDRAW 2017 -->
<svg xmlns="http://www.w3.org/2000/svg" xml:space="preserve" width="22cm" height="21cm" version="1.1" style="shape-rendering:geometricPrecision; text-rendering:geometricPrecision; image-rendering:optimizeQuality; fill-rule:evenodd; clip-rule:evenodd"
viewBox="0 0 22000 21000"
 xmlns:xlink="http://www.w3.org/1999/xlink">
 <defs>
  <style type="text/css">
   <![CDATA[
    .fil0 {fill:white}
   ]]>
  </style>
 </defs>
 <g id="Layer_x0020_1">
  <metadata id="CorelCorpID_0Corel-Layer"/>
  <path class="fil0" d="M13784 11572c491,282 1601,1531 2084,2015 1879,1885 1288,735 2505,483 1256,-259 2037,1237 1178,2114 -1227,1252 -2015,-819 -2859,8 -565,554 84,1036 258,1397 250,521 69,1190 -304,1515 -906,790 -2409,-39 -2059,-1310 149,-541 765,-751 443,-1420 -200,-417 -2571,-2452 -2967,-3081l1721 -1722zm1694 -9942c712,-210 1404,266 1549,901 253,1104 -637,1129 -523,1898 52,350 323,592 733,576 416,-16 512,-261 793,-421 1398,-795 2691,1338 1281,2201 -906,554 -1598,-281 -1839,-360 -650,-213 -1217,602 -1512,896l-6288 6290c-831,829 -1718,1642 -2500,2496 -735,803 64,1052 240,1690 462,1671 -2063,2280 -2436,668 -260,-1122 634,-1113 518,-1891 -52,-346 -325,-589 -732,-574 -400,15 -518,262 -793,417 -1336,755 -2734,-1242 -1271,-2195 873,-569 1387,185 1841,347 691,247 1991,-1383 2750,-2138 1707,-1699 3336,-3341 5040,-5041 824,-822 1732,-1647 2500,-2496 731,-808 -62,-1044 -240,-1689 -222,-804 291,-1398 890,-1575zm-7263 7799c-458,-263 -1619,-1550 -2083,-2015 -1887,-1892 -1288,-737 -2506,-482 -1281,267 -2024,-1284 -1188,-2126 346,-349 1035,-504 1530,-221 330,189 807,762 1341,225 835,-839 -1295,-1668 54,-2905 893,-819 2399,37 2048,1299 -320,1147 -1356,575 548,2476 448,447 1697,1587 1978,2028l-1721 1722zm-7621 -4218l0 831c240,527 108,671 499,1231 1101,1577 2485,1182 3689,853l2301 2286c-204,654 -1687,1662 -2283,2482 -1158,-299 -2573,-817 -3744,890 -346,505 -237,691 -462,1165l0 714c338,721 369,2204 2842,2401 59,855 221,1312 646,1849 198,250 368,388 695,600 329,213 621,226 929,393l968 0c621,-326 1319,-302 1926,-1432 609,-1134 317,-1679 9,-2774 803,-592 1850,-2085 2469,-2271l2313 2271c-317,1127 -763,2555 782,3670 608,438 695,307 1089,535l1032 0c829,-452 2109,-564 2270,-2842 2403,-173 2472,-1601 2842,-2405l0 -692c-236,-509 -104,-667 -501,-1235 -1133,-1618 -2543,-1150 -3687,-855l-2300 -2286c204,-653 1693,-1670 2283,-2482 1108,319 1713,601 2839,-36 1140,-645 1139,-1542 1366,-2032l0 -691c-363,-779 -384,-2199 -2842,-2411 -62,-859 -254,-1386 -685,-1903 -510,-612 -880,-575 -1592,-939l-957 0c-453,236 -644,175 -1158,535 -1516,1063 -1115,2515 -780,3670 -648,477 -1837,2072 -2469,2271l-2312 -2271c305,-1124 613,-1662 -39,-2838 -634,-1143 -1544,-1142 -2029,-1368l-830 0c-757,394 -1094,311 -1631,990 -406,513 -599,1016 -643,1852 -2204,155 -2352,1321 -2842,2273z"/>
 </g>
</svg>
